<svg width="20" height="20" viewBox="0 0 20 20" fill="none" xmlns="http://www.w3.org/2000/svg">
    <path fill-rule="evenodd" clip-rule="evenodd" d="M10.0003 1.66602C5.39795 1.66602 1.66699 5.39698 1.66699 9.99935C1.66699 14.6017 5.39795 18.3327 10.0003 18.3327C14.6027 18.3327 18.3337 14.6017 18.3337 9.99935C18.3337 5.39698 14.6027 1.66602 10.0003 1.66602ZM8.33366 9.16602C8.33366 8.70578 8.70675 8.33268 9.16699 8.33268H10.0003C10.4606 8.33268 10.8337 8.70578 10.8337 9.16602V13.3327C10.8337 13.7929 10.4606 14.166 10.0003 14.166C9.54009 14.166 9.16699 13.7929 9.16699 13.3327V9.99935C8.70675 9.99935 8.33366 9.62625 8.33366 9.16602ZM10.0003 5.83268C9.54009 5.83268 9.16699 6.20578 9.16699 6.66602C9.16699 7.12625 9.54009 7.49935 10.0003 7.49935C10.4606 7.49935 10.8337 7.12625 10.8337 6.66602C10.8337 6.20578 10.4606 5.83268 10.0003 5.83268Z" fill="#F59E0B"/>
</svg>