<svg width="20" height="20" viewBox="0 0 20 20" fill="none" xmlns="http://www.w3.org/2000/svg">
    <path d="M5.18783 16.6459H14.8128C15.8253 16.6459 16.6461 15.8252 16.6461 14.8126V6.5012C16.6461 6.2395 16.5901 5.98082 16.4819 5.74256L15.9889 4.65794C15.6913 4.00346 15.0387 3.58325 14.3198 3.58325H5.68084C4.9619 3.58325 4.30933 4.00346 4.01183 4.65795L3.51882 5.74256C3.41053 5.98082 3.35449 6.2395 3.35449 6.5012V14.8126C3.35449 15.8252 4.17531 16.6459 5.18783 16.6459Z" stroke="#7077FF" stroke-width="1.375" stroke-linecap="round" stroke-linejoin="round"/>
    <path d="M7.70841 6.10425C7.70841 7.24333 6.79175 8.39591 5.41675 8.39591C4.04175 8.39591 3.35425 7.24333 3.35425 6.10425" stroke="#7077FF" stroke-width="1.375" stroke-linecap="round" stroke-linejoin="round"/>
    <path d="M16.6459 6.10425C16.6459 7.24333 15.9584 8.39591 14.5834 8.39591C13.2084 8.39591 12.2917 7.24333 12.2917 6.10425" stroke="#7077FF" stroke-width="1.375" stroke-linecap="round" stroke-linejoin="round"/>
    <path d="M12.2916 6.10425C12.2916 7.24333 11.3749 8.39591 9.99992 8.39591C8.62492 8.39591 7.70825 7.24333 7.70825 6.10425" stroke="#7077FF" stroke-width="1.375" stroke-linecap="round" stroke-linejoin="round"/>
    <path d="M7.93701 13.4366C7.93701 12.4241 8.75786 11.6033 9.77032 11.6033H10.2287C11.2412 11.6033 12.062 12.4241 12.062 13.4366V16.6449H7.93701V13.4366Z" fill="#7077FF" stroke="#7077FF" stroke-width="1.375" stroke-linecap="round" stroke-linejoin="round"/>
</svg>