<svg width="20" height="20" viewBox="0 0 20 20" fill="none" xmlns="http://www.w3.org/2000/svg">
<path fill-rule="evenodd" clip-rule="evenodd" d="M18.3337 6.47049C18.3337 7.43316 17.6036 8.22534 16.667 8.32362V13.6413C17.2074 13.9376 17.6332 14.4306 17.8374 15.0433L17.9253 15.3068C18.285 16.386 17.4817 17.5005 16.3441 17.5005H3.65651C2.51892 17.5005 1.71564 16.386 2.07537 15.3068L2.16322 15.0433C2.36744 14.4306 2.79321 13.9376 3.33366 13.6413V8.32362C2.39701 8.22534 1.66699 7.43316 1.66699 6.47049C1.66699 5.76469 2.06576 5.11946 2.69705 4.80382L8.88229 1.7112C9.58611 1.35929 10.4145 1.35929 11.1184 1.7112L17.3036 4.80382C17.9349 5.11946 18.3337 5.76469 18.3337 6.47049ZM13.3337 8.33388H15.0003V13.3339H13.3337V8.33388ZM6.66699 13.3339H5.00033V8.33388H6.66699V13.3339ZM8.33366 13.3339V8.33388H11.667V13.3339H8.33366Z" fill="white" style="fill:white;fill:white;fill-opacity:1;"/>
</svg>
