<svg width="20" height="20" viewBox="0 0 20 20" fill="none" xmlns="http://www.w3.org/2000/svg">
<path fill-rule="evenodd" clip-rule="evenodd" d="M5.8335 1.66602C4.45278 1.66602 3.3335 2.7853 3.3335 4.16602V15.8327C3.3335 17.2134 4.45278 18.3327 5.8335 18.3327H14.1668C15.5475 18.3327 16.6668 17.2134 16.6668 15.8327V4.16602C16.6668 2.7853 15.5475 1.66602 14.1668 1.66602H5.8335ZM5.00016 15.8327C5.00016 16.2929 5.37326 16.666 5.8335 16.666H14.1668C14.6271 16.666 15.0002 16.2929 15.0002 15.8327V14.8571C14.7395 14.9492 14.459 14.9993 14.1668 14.9993H5.8335C5.37326 14.9993 5.00016 15.3724 5.00016 15.8327ZM7.50016 4.99935C7.03993 4.99935 6.66683 5.37245 6.66683 5.83268C6.66683 6.29292 7.03993 6.66602 7.50016 6.66602H12.5002C12.9604 6.66602 13.3335 6.29292 13.3335 5.83268C13.3335 5.37245 12.9604 4.99935 12.5002 4.99935H7.50016ZM6.66683 9.16602C6.66683 8.70578 7.03993 8.33268 7.50016 8.33268H10.0002C10.4604 8.33268 10.8335 8.70578 10.8335 9.16602C10.8335 9.62625 10.4604 9.99935 10.0002 9.99935H7.50016C7.03993 9.99935 6.66683 9.62625 6.66683 9.16602Z" fill="#A1A1AA"/>
</svg>
