<svg width="20" height="20" viewBox="0 0 20 20" fill="none" xmlns="http://www.w3.org/2000/svg">
<path d="M7.50033 4.99833C7.03917 4.99833 6.66533 5.37218 6.66533 5.83333C6.66533 6.29449 7.03917 6.66833 7.50033 6.66833V4.99833ZM12.5003 6.66833C12.9615 6.66833 13.3353 6.29449 13.3353 5.83333C13.3353 5.37218 12.9615 4.99833 12.5003 4.99833V6.66833ZM7.50033 8.33167C7.03917 8.33167 6.66533 8.70551 6.66533 9.16667C6.66533 9.62782 7.03917 10.0017 7.50033 10.0017V8.33167ZM10.0003 10.0017C10.4615 10.0017 10.8353 9.62782 10.8353 9.16667C10.8353 8.70551 10.4615 8.33167 10.0003 8.33167V10.0017ZM5.83366 3.335H14.167V1.665H5.83366V3.335ZM14.9987 4.16667V15.8333H16.6687V4.16667H14.9987ZM14.167 16.665H5.83366V18.335H14.167V16.665ZM5.00199 15.8333V4.16667H3.33199V15.8333H5.00199ZM5.83366 16.665C5.37434 16.665 5.00199 16.2927 5.00199 15.8333H3.33199C3.33199 17.215 4.45203 18.335 5.83366 18.335V16.665ZM14.9987 15.8333C14.9987 16.2927 14.6263 16.665 14.167 16.665V18.335C15.5486 18.335 16.6687 17.215 16.6687 15.8333H14.9987ZM14.167 3.335C14.6263 3.335 14.9987 3.70735 14.9987 4.16667H16.6687C16.6687 2.78503 15.5486 1.665 14.167 1.665V3.335ZM5.83366 1.665C4.45203 1.665 3.33199 2.78503 3.33199 4.16667H5.00199C5.00199 3.70735 5.37434 3.335 5.83366 3.335V1.665ZM14.9987 10V12.5H16.6687V10H14.9987ZM14.167 13.3317H5.83366V15.0017H14.167V13.3317ZM5.83366 18.335H8.33366V16.665H5.83366V18.335ZM5.83366 13.3317C4.45203 13.3317 3.33199 14.4517 3.33199 15.8333H5.00199C5.00199 15.374 5.37434 15.0017 5.83366 15.0017V13.3317ZM14.9987 12.5C14.9987 12.9593 14.6263 13.3317 14.167 13.3317V15.0017C15.5486 15.0017 16.6687 13.8816 16.6687 12.5H14.9987ZM7.50033 6.66833H12.5003V4.99833H7.50033V6.66833ZM7.50033 10.0017H10.0003V8.33167H7.50033V10.0017Z" fill="#A1A1AA"/>
</svg>