<svg width="20" height="20" viewBox="0 0 20 20" fill="none" xmlns="http://www.w3.org/2000/svg">
<path d="M14.1668 11.6667H15.8353C16.7558 11.6667 17.502 10.9205 17.502 10V4.99999C17.502 4.07952 16.7558 3.33333 15.8353 3.33333H7.50195C6.58148 3.33333 5.83529 4.07952 5.83529 4.99999V6.66666M12.502 6.66666H4.16862C3.24815 6.66666 2.50195 7.41285 2.50195 8.33333V13.3333C2.50195 14.2538 3.24815 15 4.16862 15H5.00195V17.0833L8.75195 15H12.502C13.4224 15 14.1686 14.2538 14.1686 13.3333V8.33333C14.1686 7.41285 13.4224 6.66666 12.502 6.66666Z" stroke="#A1A1AA" stroke-width="1.67" stroke-linecap="round" stroke-linejoin="round"/>
</svg>