<svg width="20" height="20" viewBox="0 0 20 20" fill="none" xmlns="http://www.w3.org/2000/svg">
<path d="M5.18783 16.6461H14.8128C15.8253 16.6461 16.6461 15.8253 16.6461 14.8127V6.50133C16.6461 6.23962 16.5901 5.98094 16.4819 5.74268L15.9889 4.65806C15.6913 4.00358 15.0387 3.58337 14.3198 3.58337H5.68084C4.9619 3.58337 4.30933 4.00358 4.01183 4.65807L3.51882 5.74268C3.41053 5.98094 3.35449 6.23962 3.35449 6.50133V14.8127C3.35449 15.8253 4.17531 16.6461 5.18783 16.6461Z" stroke="#27272A" stroke-width="1.5" stroke-linecap="round" stroke-linejoin="round"/>
<path d="M7.70841 6.10413C7.70841 7.24321 6.79175 8.39579 5.41675 8.39579C4.04175 8.39579 3.35425 7.24321 3.35425 6.10413" stroke="#27272A" stroke-width="1.5" stroke-linecap="round" stroke-linejoin="round"/>
<path d="M16.6459 6.10413C16.6459 7.24321 15.9584 8.39579 14.5834 8.39579C13.2084 8.39579 12.2917 7.24321 12.2917 6.10413" stroke="#27272A" stroke-width="1.5" stroke-linecap="round" stroke-linejoin="round"/>
<path d="M12.2916 6.10413C12.2916 7.24321 11.3749 8.39579 9.99992 8.39579C8.62492 8.39579 7.70825 7.24321 7.70825 6.10413" stroke="#27272A" stroke-width="1.5" stroke-linecap="round" stroke-linejoin="round"/>
<path d="M7.93726 13.4368C7.93726 12.4243 8.7581 11.6035 9.77056 11.6035H10.2289C11.2414 11.6035 12.0622 12.4243 12.0622 13.4368V16.6452H7.93726V13.4368Z" stroke="#27272A" stroke-width="1.5" stroke-linecap="round" stroke-linejoin="round"/>
</svg>
