<svg width="21" height="20" viewBox="0 0 21 20" fill="none" xmlns="http://www.w3.org/2000/svg">
    <path d="M5.5754 4.05561C7.25108 3.51585 9.21813 3.33337 10.5013 3.33337C11.7845 3.33337 13.7515 3.51585 15.4272 4.05561C16.2628 4.32477 17.0861 4.70153 17.7149 5.23718C18.3602 5.78682 18.8346 6.53861 18.8346 7.50004C18.8346 7.96028 18.4615 8.33337 18.0013 8.33337H3.0013C2.54107 8.33337 2.16797 7.96028 2.16797 7.50004C2.16797 6.53861 2.64238 5.78682 3.28767 5.23718C3.91655 4.70153 4.73983 4.32477 5.5754 4.05561Z" fill="#76767F"/>
    <path d="M4.57182 11.2901C5.16669 11.0422 5.83592 11.0422 6.43079 11.2901C7.43592 11.7089 8.56669 11.7089 9.57182 11.2901C10.1667 11.0422 10.8359 11.0422 11.4308 11.2901C12.4359 11.7089 13.5667 11.7089 14.5718 11.2901C15.1667 11.0422 15.8359 11.0422 16.4308 11.2901C16.9332 11.4994 17.467 11.6041 18.0008 11.6042C18.461 11.6043 18.8342 11.2312 18.8342 10.771C18.8343 10.3107 18.4612 9.93759 18.001 9.93754C17.685 9.9375 17.3692 9.87554 17.0718 9.75164C16.0667 9.33284 14.9359 9.33284 13.9308 9.75164C13.3359 9.9995 12.6667 9.9995 12.0718 9.75164C11.0667 9.33284 9.93592 9.33284 8.93079 9.75164C8.33592 9.9995 7.66669 9.9995 7.07182 9.75164C6.06669 9.33284 4.93592 9.33284 3.93079 9.75164C3.63335 9.87558 3.31737 9.93754 3.0013 9.93754C2.54107 9.93754 2.16797 10.3106 2.16797 10.7709C2.16797 11.2311 2.54107 11.6042 3.0013 11.6042C3.53524 11.6042 4.06926 11.4995 4.57182 11.2901Z" fill="#76767F"/>
    <path d="M15.528 16.6667C15.8935 16.6667 16.2089 16.6667 16.47 16.6489C16.7448 16.6302 17.0197 16.5889 17.2913 16.4764C17.9039 16.2227 18.3906 15.736 18.6443 15.1234C18.7568 14.8518 18.7981 14.5769 18.8168 14.302C18.8347 14.041 18.8346 13.7256 18.8346 13.36V13.3334C18.8346 12.8731 18.4615 12.5 18.0013 12.5H3.0013C2.54107 12.5 2.16797 12.8731 2.16797 13.3334V13.36C2.16796 13.7256 2.16795 14.041 2.18576 14.302C2.20451 14.5769 2.24577 14.8518 2.35827 15.1234C2.61201 15.736 3.09869 16.2227 3.71126 16.4764C3.98287 16.5889 4.25779 16.6302 4.53265 16.6489C4.79369 16.6667 5.10909 16.6667 5.47462 16.6667H15.528Z" fill="#76767F"/>
</svg>