<svg width="20" height="20" viewBox="0 0 20 20" fill="none" xmlns="http://www.w3.org/2000/svg">
    <path fill-rule="evenodd" clip-rule="evenodd" d="M6.66667 1.66675C7.1269 1.66675 7.5 2.03984 7.5 2.50008V3.33341H12.5V2.50008C12.5 2.03984 12.8731 1.66675 13.3333 1.66675C13.7936 1.66675 14.1667 2.03984 14.1667 2.50008V3.33341H15C16.3807 3.33341 17.5 4.4527 17.5 5.83341V15.0001C17.5 16.3808 16.3807 17.5001 15 17.5001H5C3.61929 17.5001 2.5 16.3808 2.5 15.0001V5.83341C2.5 4.4527 3.61929 3.33341 5 3.33341H5.83333V2.50008C5.83333 2.03984 6.20643 1.66675 6.66667 1.66675ZM4.16667 9.16675V15.0001C4.16667 15.4603 4.53976 15.8334 5 15.8334H15C15.4602 15.8334 15.8333 15.4603 15.8333 15.0001V9.16675H4.16667Z" fill="#27272A"/>
</svg>