<svg width="20" height="20" viewBox="0 0 20 20" fill="none" xmlns="http://www.w3.org/2000/svg">
<path d="M3.26159 13.2619L3.85085 12.6726L3.85085 12.6726L3.26159 13.2619ZM6.7379 16.7382L6.14865 17.3274H6.14865L6.7379 16.7382ZM16.7379 6.73816L17.3272 6.14891V6.14891L16.7379 6.73816ZM13.2616 3.26185L13.8508 2.6726L13.8508 2.6726L13.2616 3.26185ZM10.9046 3.26185L11.4938 3.85111V3.85111L10.9046 3.26185ZM8.57716 4.41075C8.25172 4.73619 8.25172 5.26383 8.57716 5.58926C8.9026 5.9147 9.43023 5.9147 9.75567 5.58926L8.57716 4.41075ZM5.589 9.75593C5.91444 9.43049 5.91444 8.90286 5.589 8.57742C5.26357 8.25198 4.73593 8.25198 4.41049 8.57742L5.589 9.75593ZM3.26159 10.9048L2.67234 10.3156H2.67234L3.26159 10.9048ZM14.4105 10.2441C14.0851 10.5695 14.0851 11.0972 14.4105 11.4226C14.7359 11.748 15.2636 11.748 15.589 11.4226L14.4105 10.2441ZM16.7379 9.09519L16.1486 8.50593H16.1486L16.7379 9.09519ZM9.09493 16.7382L9.68418 17.3274H9.68418L9.09493 16.7382ZM11.4223 15.5893C11.7478 15.2638 11.7478 14.7362 11.4223 14.4108C11.0969 14.0853 10.5693 14.0853 10.2438 14.4108L11.4223 15.5893ZM6.91049 11.9108C6.58506 12.2362 6.58506 12.7638 6.91049 13.0893C7.23593 13.4147 7.76357 13.4147 8.089 13.0893L6.91049 11.9108ZM13.089 8.08926C13.4144 7.76383 13.4144 7.23619 13.089 6.91075C12.7636 6.58532 12.2359 6.58532 11.9105 6.91075L13.089 8.08926ZM2.67234 13.8511L6.14865 17.3274L7.32716 16.1489L3.85085 12.6726L2.67234 13.8511ZM17.3272 6.14891L13.8508 2.6726L12.6723 3.85111L16.1486 7.32742L17.3272 6.14891ZM10.3153 2.6726L8.57716 4.41075L9.75567 5.58926L11.4938 3.85111L10.3153 2.6726ZM4.41049 8.57742L2.67234 10.3156L3.85085 11.4941L5.589 9.75593L4.41049 8.57742ZM15.589 11.4226L17.3272 9.68444L16.1486 8.50593L14.4105 10.2441L15.589 11.4226ZM9.68418 17.3274L11.4223 15.5893L10.2438 14.4108L8.50567 16.1489L9.68418 17.3274ZM16.1486 7.32742C16.4741 7.65286 16.4741 8.18049 16.1486 8.50593L17.3272 9.68444C18.3035 8.70813 18.3035 7.12522 17.3272 6.14891L16.1486 7.32742ZM6.14865 17.3274C7.12496 18.3037 8.70787 18.3037 9.68418 17.3274L8.50567 16.1489C8.18023 16.4743 7.6526 16.4743 7.32716 16.1489L6.14865 17.3274ZM3.85085 12.6726C3.52541 12.3472 3.52541 11.8195 3.85085 11.4941L2.67234 10.3156C1.69603 11.2919 1.69603 12.8748 2.67234 13.8511L3.85085 12.6726ZM13.8508 2.6726C12.8745 1.69628 11.2916 1.69629 10.3153 2.6726L11.4938 3.85111C11.8193 3.52567 12.3469 3.52567 12.6723 3.85111L13.8508 2.6726ZM8.089 13.0893L13.089 8.08926L11.9105 6.91075L6.91049 11.9108L8.089 13.0893Z" fill="#A1A1AA"/>
</svg>