<svg width="20" height="20" viewBox="0 0 20 20" fill="none" xmlns="http://www.w3.org/2000/svg">
    <path d="M3.95825 10C3.95825 6.66332 6.6632 3.95837 9.99992 3.95837C13.3367 3.95837 16.0416 6.66332 16.0416 10C16.0416 13.3368 13.3367 16.0417 9.99992 16.0417C6.6632 16.0417 3.95825 13.3368 3.95825 10Z" fill="#A1A1AA" stroke="#A1A1AA" stroke-width="1.5" stroke-linecap="round" stroke-linejoin="round"/>
    <path fill-rule="evenodd" clip-rule="evenodd" d="M8.56694 7.68306C8.32286 7.43898 7.92714 7.43898 7.68306 7.68306C7.43898 7.92714 7.43898 8.32286 7.68306 8.56694L9.11612 10L7.68306 11.4331C7.43898 11.6771 7.43898 12.0729 7.68306 12.3169C7.92714 12.561 8.32286 12.561 8.56694 12.3169L10 10.8839L11.4331 12.3169C11.6771 12.561 12.0729 12.561 12.3169 12.3169C12.561 12.0729 12.561 11.6771 12.3169 11.4331L10.8839 10L12.3169 8.56694C12.561 8.32286 12.561 7.92714 12.3169 7.68306C12.0729 7.43898 11.6771 7.43898 11.4331 7.68306L10 9.11612L8.56694 7.68306Z" fill="white"/>
</svg>