<svg width="20" height="20" viewBox="0 0 20 20" fill="none" xmlns="http://www.w3.org/2000/svg">
    <path d="M6.66536 2.49996C6.66536 2.03972 6.29227 1.66663 5.83203 1.66663C5.37179 1.66663 4.9987 2.03972 4.9987 2.49996V4.16663C4.9987 4.62686 5.37179 4.99996 5.83203 4.99996C6.29227 4.99996 6.66536 4.62686 6.66536 4.16663V2.49996Z" fill="#76767F"/>
    <path d="M9.9987 2.49996C9.9987 2.03972 9.6256 1.66663 9.16536 1.66663C8.70513 1.66663 8.33203 2.03972 8.33203 2.49996V4.16663C8.33203 4.62686 8.70513 4.99996 9.16536 4.99996C9.6256 4.99996 9.9987 4.62686 9.9987 4.16663V2.49996Z" fill="#76767F"/>
    <path d="M13.332 2.49996C13.332 2.03972 12.9589 1.66663 12.4987 1.66663C12.0385 1.66663 11.6654 2.03972 11.6654 2.49996V4.16663C11.6654 4.62686 12.0385 4.99996 12.4987 4.99996C12.9589 4.99996 13.332 4.62686 13.332 4.16663V2.49996Z" fill="#76767F"/>
    <path fill-rule="evenodd" clip-rule="evenodd" d="M3.33203 7.49996C3.33203 6.57948 4.07822 5.83329 4.9987 5.83329H13.332C14.2525 5.83329 14.9987 6.57949 14.9987 7.49996H15.4154C17.0262 7.49996 18.332 8.8058 18.332 10.4166C18.332 12.0275 17.0262 13.3333 15.4154 13.3333H14.9987V15.8333C14.9987 17.214 13.8794 18.3333 12.4987 18.3333H5.83203C4.45132 18.3333 3.33203 17.214 3.33203 15.8333V7.49996ZM14.9987 11.6666H15.4154C16.1057 11.6666 16.6654 11.107 16.6654 10.4166C16.6654 9.72627 16.1057 9.16663 15.4154 9.16663H14.9987V11.6666Z" fill="#76767F"/>
</svg>