<svg width="20" height="20" viewBox="0 0 20 20" fill="none" xmlns="http://www.w3.org/2000/svg">
    <path fill-rule="evenodd" clip-rule="evenodd" d="M5.83337 1.66675H10V5.83342C10 7.21413 11.1193 8.33342 12.5 8.33342H16.6667V15.8334C16.6667 17.2141 15.5474 18.3334 14.1667 18.3334H5.83337C4.45266 18.3334 3.33337 17.2141 3.33337 15.8334V4.16675C3.33337 2.78604 4.45266 1.66675 5.83337 1.66675ZM12.6726 14.3393L10.5893 16.4227C10.2639 16.7481 9.73622 16.7481 9.41079 16.4227L7.32745 14.3393C7.00201 14.0139 7.00201 13.4863 7.32745 13.1608C7.65289 12.8354 8.18053 12.8354 8.50596 13.1608L9.16671 13.8216V10.8334C9.16671 10.3732 9.5398 10.0001 10 10.0001C10.4603 10.0001 10.8334 10.3732 10.8334 10.8334V13.8216L11.4941 13.1608C11.8196 12.8354 12.3472 12.8354 12.6726 13.1608C12.9981 13.4863 12.9981 14.0139 12.6726 14.3393Z" fill="#A1A1AA"/>
    <path d="M11.6667 2.1549L16.1786 6.66675H12.5C12.0398 6.66675 11.6667 6.29365 11.6667 5.83342V2.1549Z" fill="#A1A1AA"/>
</svg>