<svg width="20" height="20" viewBox="0 0 20 20" fill="none" xmlns="http://www.w3.org/2000/svg">
    <path d="M11.1287 7.66639C11.3531 8.06925 11.8616 8.2139 12.2645 7.98947C12.6673 7.76504 12.812 7.25652 12.5875 6.85365L11.1287 7.66639ZM10 10.0103L9.73192 10.8011L10 10.0103ZM8.87135 12.3542C8.64692 11.9514 8.13839 11.8067 7.73553 12.0311C7.33267 12.2556 7.18803 12.7641 7.41246 13.167L8.87135 12.3542ZM10.835 4.99919C10.835 4.53803 10.4612 4.16419 10 4.16419C9.53884 4.16419 9.165 4.53803 9.165 4.99919H10.835ZM9.165 15C9.165 15.4612 9.53884 15.835 10 15.835C10.4612 15.835 10.835 15.4612 10.835 15H9.165ZM10 5.41515C9.27847 5.41515 8.55214 5.57682 7.98872 6.02102C7.39456 6.48945 7.0926 7.18453 7.0926 8.00073H8.7626C8.7626 7.6204 8.88603 7.44018 9.02266 7.33246C9.19003 7.2005 9.4999 7.08515 10 7.08515V5.41515ZM12.5875 6.85365C12.1024 5.98275 11.1703 5.41515 10 5.41515V7.08515C10.5979 7.08515 10.9542 7.35319 11.1287 7.66639L12.5875 6.85365ZM7.0926 8.00073C7.0926 8.95477 7.48524 9.61923 8.08725 10.0626C8.60806 10.4462 9.27927 10.6477 9.73192 10.8011L10.2681 9.21951C9.70372 9.02819 9.33873 8.91027 9.07759 8.71795C8.89766 8.58543 8.7626 8.41749 8.7626 8.00073H7.0926ZM10 14.6055C10.7215 14.6055 11.4479 14.4438 12.0113 13.9996C12.6054 13.5312 12.9074 12.8361 12.9074 12.0199H11.2374C11.2374 12.4002 11.114 12.5804 10.9773 12.6882C10.81 12.8201 10.5001 12.9355 10 12.9355V14.6055ZM7.41246 13.167C7.89763 14.0379 8.82967 14.6055 10 14.6055V12.9355C9.40212 12.9355 9.04583 12.6674 8.87135 12.3542L7.41246 13.167ZM12.9074 12.0199C12.9074 11.0658 12.5148 10.4014 11.9127 9.958C11.3919 9.57443 10.7207 9.37296 10.2681 9.21951L9.73192 10.8011C10.2963 10.9924 10.6613 11.1103 10.9224 11.3027C11.1023 11.4352 11.2374 11.6031 11.2374 12.0199H12.9074ZM10.835 6.25015V4.99919H9.165V6.25015H10.835ZM9.165 13.7705V15H10.835V13.7705H9.165ZM16.665 10C16.665 13.681 13.681 16.665 10 16.665V18.335C14.6033 18.335 18.335 14.6033 18.335 10H16.665ZM10 16.665C6.31902 16.665 3.335 13.681 3.335 10H1.665C1.665 14.6033 5.39671 18.335 10 18.335V16.665ZM3.335 10C3.335 6.31902 6.31902 3.335 10 3.335V1.665C5.39671 1.665 1.665 5.39671 1.665 10H3.335ZM10 3.335C13.681 3.335 16.665 6.31902 16.665 10H18.335C18.335 5.39671 14.6033 1.665 10 1.665V3.335Z" fill="#A1A1AA"/>
</svg>