<svg width="20" height="20" viewBox="0 0 20 20" fill="none" xmlns="http://www.w3.org/2000/svg">
    <path d="M4.88672 11.5137C5.69336 11.5137 6.34961 10.8643 6.34961 10.0713C6.34961 9.26465 5.70703 8.62891 4.88672 8.62891C4.09375 8.62891 3.44434 9.27148 3.44434 10.0713C3.44434 10.8643 4.09375 11.5137 4.88672 11.5137ZM10 11.5137C10.7861 11.5137 11.4355 10.8643 11.4355 10.0713C11.4355 9.26465 10.8066 8.62891 10 8.62891C9.2002 8.62891 8.55762 9.27148 8.55762 10.0713C8.55762 10.8643 9.2002 11.5137 10 11.5137ZM15.1064 11.5137C15.8994 11.5137 16.5557 10.8643 16.5557 10.0713C16.5557 9.26465 15.9131 8.62891 15.1064 8.62891C14.2998 8.62891 13.6504 9.27148 13.6504 10.0713C13.6504 10.8643 14.2998 11.5137 15.1064 11.5137Z" fill="#27272A"/>
</svg>