<svg width="20" height="20" viewBox="0 0 20 20" fill="none" xmlns="http://www.w3.org/2000/svg">
<path d="M8.32618 12.0918C10.6553 12.0918 12.6941 10.8297 12.6941 8.02507C12.6941 5.22045 10.6553 3.95837 8.32618 3.95837C5.99703 3.95837 3.95825 5.22045 3.95825 8.02507C3.95825 9.05521 4.23329 9.87721 4.69675 10.505C4.86487 10.7328 4.82944 11.2636 4.69509 11.5128C4.37355 12.1091 4.98107 12.7625 5.64139 12.6111C6.13567 12.4979 6.65412 12.3445 7.10784 12.1389C7.27394 12.0635 7.45736 12.0332 7.63859 12.0537C7.86373 12.0791 8.0935 12.0918 8.32618 12.0918Z" fill="#27272A" stroke="#27272A" stroke-width="1.5" stroke-linecap="round" stroke-linejoin="round"/>
<path d="M15.674 8.35536C15.4561 8.08771 15.0623 8.04742 14.7948 8.26539C14.5271 8.48336 14.4868 8.87702 14.7048 9.14469L15.674 8.35536ZM9.15025 14.0787C8.8715 13.8751 8.4805 13.9359 8.27688 14.2146C8.07325 14.4934 8.13411 14.8844 8.41283 15.088L9.15025 14.0787ZM16.6524 11.3584C16.6524 10.132 16.2997 9.12361 15.674 8.35536L14.7048 9.14469C15.1258 9.66177 15.4024 10.381 15.4024 11.3584H16.6524ZM15.7917 14.2095C16.3448 13.4604 16.6524 12.5039 16.6524 11.3584H15.4024C15.4024 12.2731 15.16 12.9606 14.7861 13.4672L15.7917 14.2095ZM12.6198 16.0414C13.1254 16.2706 13.6878 16.4352 14.2047 16.5537L14.4839 15.3353C14.0122 15.2271 13.5377 15.0851 13.1359 14.9029L12.6198 16.0414ZM11.6595 16.0501C11.9147 16.0501 12.1679 16.0363 12.4173 16.008L12.2768 14.7659C12.076 14.7887 11.8697 14.8001 11.6595 14.8001V16.0501ZM8.41283 15.088C9.32542 15.7548 10.4816 16.0501 11.6595 16.0501V14.8001C10.6778 14.8001 9.79917 14.5529 9.15025 14.0787L8.41283 15.088ZM13.1359 14.9029C12.8702 14.7825 12.5735 14.7324 12.2768 14.7659L12.4173 16.008C12.4831 16.0006 12.5533 16.0113 12.6198 16.0414L13.1359 14.9029ZM14.7405 15.1428C14.7563 15.1721 14.7548 15.1871 14.7536 15.1951C14.7516 15.2079 14.7434 15.2324 14.7181 15.2609C14.6636 15.3224 14.5745 15.356 14.4839 15.3353L14.2047 16.5537C14.7744 16.6843 15.3192 16.4669 15.6532 16.0904C15.9954 15.7046 16.1437 15.1114 15.8407 14.5494L14.7405 15.1428ZM14.7861 13.4672C14.5764 13.7513 14.5458 14.1149 14.5515 14.3493C14.5576 14.6017 14.6113 14.9031 14.7405 15.1428L15.8407 14.5494C15.8424 14.5527 15.8316 14.5314 15.8202 14.4803C15.8097 14.4327 15.8025 14.3762 15.8012 14.3191C15.7997 14.2611 15.8046 14.2156 15.8108 14.1869C15.8179 14.153 15.8207 14.1704 15.7917 14.2095L14.7861 13.4672Z" fill="#27272A"/>
</svg>
