<svg width="21" height="20" viewBox="0 0 21 20" fill="none" xmlns="http://www.w3.org/2000/svg">
    <path fill-rule="evenodd" clip-rule="evenodd" d="M15.0621 1.48611C15.162 1.93539 14.8787 2.38054 14.4294 2.48038L11.332 3.1687V5.00022H14.6079C15.572 5.00022 16.335 5.81578 16.2709 6.77775L15.6005 16.8332C15.5896 16.9973 15.563 17.1569 15.5222 17.3105C15.2368 18.3856 14.2577 19.1669 13.1061 19.1669H7.89125C7.80899 19.1669 7.72761 19.1629 7.6473 19.1551C6.44266 19.0382 5.47886 18.0643 5.39679 16.8332L4.94494 10.0557L4.94472 10.0522L4.72642 6.77775C4.66229 5.81578 5.42529 5.00022 6.3894 5.00022H9.66533V2.50022C9.66533 2.10964 9.9366 1.77146 10.3179 1.68673L14.0679 0.853397C14.5172 0.753557 14.9623 1.03683 15.0621 1.48611ZM6.55606 9.16689H14.4413L14.6079 6.66689H6.3894L6.55606 9.16689Z" fill="#76767F"/>
</svg>