<svg width="20" height="20" viewBox="0 0 20 20" fill="none" xmlns="http://www.w3.org/2000/svg">
    <path d="M1.76614 5.17396C1.72703 5.33826 1.7051 5.50439 1.69149 5.67097C1.66599 5.9831 1.666 6.36205 1.66602 6.80131V13.1989C1.666 13.6382 1.66599 14.0172 1.69149 14.3294C1.71841 14.6588 1.77784 14.9865 1.9385 15.3018C2.17819 15.7722 2.56064 16.1547 3.03104 16.3943C3.34636 16.555 3.67404 16.6144 4.00349 16.6414C4.31561 16.6669 4.69453 16.6668 5.13376 16.6668H14.8648C15.304 16.6668 15.6831 16.6669 15.9952 16.6414C16.3247 16.6144 16.6523 16.555 16.9677 16.3943C17.4381 16.1547 17.8205 15.7722 18.0602 15.3018C18.2209 14.9865 18.2803 14.6588 18.3072 14.3294C18.3327 14.0172 18.3327 13.6383 18.3327 13.199V6.80136C18.3327 6.36208 18.3327 5.98311 18.3072 5.67097C18.2936 5.50439 18.2717 5.33826 18.2326 5.17395L11.5824 10.615C10.6615 11.3684 9.33717 11.3684 8.41625 10.615L1.76614 5.17396Z" fill="#0EA5E9"/>
    <path d="M17.2832 3.79729C17.1833 3.72615 17.0779 3.66215 16.9677 3.60598C16.6523 3.44532 16.3247 3.38589 15.9952 3.35897C15.6831 3.33347 15.3041 3.33348 14.8648 3.3335H5.1339C4.69463 3.33348 4.31562 3.33347 4.00349 3.35897C3.67404 3.38589 3.34636 3.44532 3.03104 3.60598C2.92081 3.66215 2.81541 3.72616 2.71554 3.7973L9.47165 9.32503C9.77862 9.57618 10.2201 9.57618 10.527 9.32503L17.2832 3.79729Z" fill="#0EA5E9"/>
</svg>
