<svg width="20" height="20" viewBox="0 0 20 20" fill="none" xmlns="http://www.w3.org/2000/svg">
    <path d="M9.99992 16.0417C13.3366 16.0417 16.0416 13.3368 16.0416 10C16.0416 6.66332 13.3366 3.95837 9.99992 3.95837C6.6632 3.95837 3.95825 6.66332 3.95825 10C3.95825 13.3368 6.6632 16.0417 9.99992 16.0417Z" fill="#27272A" stroke="#27272A" stroke-width="1.5" stroke-linecap="round" stroke-linejoin="round"/>
    <path d="M10 10.8334V12.5Z" fill="white"/>
    <path d="M10 10.8334V12.5" stroke="white" stroke-width="1.66667" stroke-linecap="round" stroke-linejoin="round"/>
    <path d="M10.0001 8.33329C10.4603 8.33329 10.8334 7.9602 10.8334 7.49996C10.8334 7.03972 10.4603 6.66663 10.0001 6.66663C9.53984 6.66663 9.16675 7.03972 9.16675 7.49996C9.16675 7.9602 9.53984 8.33329 10.0001 8.33329Z" fill="white"/>
</svg>