<svg width="20" height="20" viewBox="0 0 20 20" fill="none" xmlns="http://www.w3.org/2000/svg">
<path fill-rule="evenodd" clip-rule="evenodd" d="M9.99935 1.66669C5.39698 1.66669 1.66602 5.39765 1.66602 10C1.66602 14.6024 5.39698 18.3334 9.99935 18.3334C14.6017 18.3334 18.3327 14.6024 18.3327 10C18.3327 5.39765 14.6017 1.66669 9.99935 1.66669ZM9.99936 7.50002C9.68492 7.50002 9.40988 7.67385 9.26725 7.93462C9.0464 8.3384 8.54003 8.4867 8.13624 8.26584C7.73246 8.04499 7.58416 7.53862 7.80502 7.13484C8.22821 6.36111 9.05155 5.83335 9.99936 5.83335C11.2616 5.83335 12.1384 6.67204 12.3881 7.65752C12.639 8.64823 12.2578 9.80252 11.1174 10.3727C10.9429 10.4599 10.8327 10.6383 10.8327 10.8334C10.8327 11.2936 10.4596 11.6667 9.99936 11.6667C9.53912 11.6667 9.16602 11.2936 9.16602 10.8334C9.16602 10.007 9.63291 9.25155 10.372 8.88199C10.751 8.69251 10.8483 8.36647 10.7724 8.06677C10.6952 7.76183 10.4396 7.50002 9.99936 7.50002ZM9.99935 14.1667C10.4596 14.1667 10.8327 13.7936 10.8327 13.3334C10.8327 12.8731 10.4596 12.5 9.99935 12.5C9.53911 12.5 9.16602 12.8731 9.16602 13.3334C9.16602 13.7936 9.53911 14.1667 9.99935 14.1667Z" fill="#A1A1AA"/>
</svg>
