<svg width="20" height="20" viewBox="0 0 20 20" fill="none" xmlns="http://www.w3.org/2000/svg">
<path d="M16.0727 8.16671C16.476 8.99042 16.6459 9.70167 16.6459 10C16.6459 10.9167 15.0417 15.7292 10.0001 15.7292C9.32963 15.7292 8.71996 15.6441 8.16675 15.4944M5.41675 13.9129C3.91533 12.4469 3.35425 10.5422 3.35425 10C3.35425 9.08337 4.95841 4.27087 10.0001 4.27087C11.6452 4.27087 12.9243 4.78331 13.9012 5.50561" stroke="#27272A" stroke-width="1.5" stroke-linecap="round" stroke-linejoin="round"/>
<path d="M16.6459 3.35413L3.35425 16.6458" stroke="#27272A" stroke-width="1.5" stroke-linecap="round" stroke-linejoin="round"/>
<path d="M8.54159 11.4584C7.73614 10.653 7.73614 9.34708 8.54159 8.54161C9.34706 7.73613 10.6529 7.73613 11.4584 8.54161" stroke="#27272A" stroke-width="1.5" stroke-linecap="round" stroke-linejoin="round"/>
</svg>
