<svg width="20" height="20" viewBox="0 0 20 20" fill="none" xmlns="http://www.w3.org/2000/svg">
    <path d="M3.35425 4.27091C3.35425 3.76466 3.76466 3.35425 4.27091 3.35425H7.47925C7.98551 3.35425 8.39592 3.76466 8.39592 4.27091V7.47925C8.39592 7.98551 7.98551 8.39592 7.47925 8.39592H4.27091C3.76466 8.39592 3.35425 7.98551 3.35425 7.47925V4.27091Z" stroke="#A3A3A3" stroke-width="1.375" stroke-linecap="round" stroke-linejoin="round"/>
    <path d="M3.35425 12.5209C3.35425 12.0146 3.76466 11.6042 4.27091 11.6042H7.47925C7.98551 11.6042 8.39592 12.0146 8.39592 12.5209V15.7292C8.39592 16.2355 7.98551 16.6459 7.47925 16.6459H4.27091C3.76466 16.6459 3.35425 16.2355 3.35425 15.7292V12.5209Z" stroke="#A3A3A3" stroke-width="1.375" stroke-linecap="round" stroke-linejoin="round"/>
    <path d="M11.6042 4.27091C11.6042 3.76466 12.0146 3.35425 12.5209 3.35425H15.7292C16.2355 3.35425 16.6459 3.76466 16.6459 4.27091V7.47925C16.6459 7.98551 16.2355 8.39592 15.7292 8.39592H12.5209C12.0146 8.39592 11.6042 7.98551 11.6042 7.47925V4.27091Z" stroke="#A3A3A3" stroke-width="1.375" stroke-linecap="round" stroke-linejoin="round"/>
    <path d="M11.6042 12.5209C11.6042 12.0146 12.0146 11.6042 12.5209 11.6042H15.7292C16.2355 11.6042 16.6459 12.0146 16.6459 12.5209V15.7292C16.6459 16.2355 16.2355 16.6459 15.7292 16.6459H12.5209C12.0146 16.6459 11.6042 16.2355 11.6042 15.7292V12.5209Z" stroke="#A3A3A3" stroke-width="1.375" stroke-linecap="round" stroke-linejoin="round"/>
</svg>