<svg width="20" height="20" viewBox="0 0 20 20" fill="none" xmlns="http://www.w3.org/2000/svg">
<path d="M16.6673 15V8.2563C16.6673 7.7757 16.4599 7.31849 16.0982 7.00201L11.0982 2.62701C10.4698 2.07718 9.53152 2.07718 8.90314 2.62701L3.90314 7.00201C3.54145 7.31849 3.33398 7.7757 3.33398 8.2563V15C3.33398 15.9205 4.08018 16.6667 5.00065 16.6667H7.50065C7.96089 16.6667 8.33398 16.2936 8.33398 15.8334V13.3334C8.33398 12.4129 9.08018 11.6667 10.0007 11.6667C10.9211 11.6667 11.6673 12.4129 11.6673 13.3334V15.8334C11.6673 16.2936 12.0404 16.6667 12.5007 16.6667H15.0007C15.9211 16.6667 16.6673 15.9205 16.6673 15Z" stroke="#A1A1AA" stroke-width="1.4" stroke-linejoin="round"/>
</svg>
