<svg width="20" height="20" viewBox="0 0 20 20" fill="none" xmlns="http://www.w3.org/2000/svg">
<path d="M11.6463 1.99942C10.7037 1.17467 9.29631 1.17467 8.35374 1.99942L3.35374 6.37442C2.8112 6.84914 2.5 7.53495 2.5 8.25586V14.9996C2.5 16.3803 3.61929 17.4996 5 17.4996H6.66667C7.58714 17.4996 8.33333 16.7534 8.33333 15.8329V13.3329C8.33333 12.4124 9.07953 11.6662 10 11.6662C10.9205 11.6662 11.6667 12.4124 11.6667 13.3329V15.8329C11.6667 16.7534 12.4129 17.4996 13.3333 17.4996H15C16.3807 17.4996 17.5 16.3803 17.5 14.9996V8.25586C17.5 7.53495 17.1888 6.84914 16.6463 6.37442L11.6463 1.99942Z" fill="#7077FF"/>
</svg>
