<svg width="20" height="20" viewBox="0 0 20 20" fill="none" xmlns="http://www.w3.org/2000/svg">
    <path d="M4.29924 16.6459H11.1161C11.6336 16.6459 12.0408 16.2166 11.9377 15.7095C11.653 14.3095 10.7233 11.8334 7.70771 11.8334C4.69216 11.8334 3.76242 14.3095 3.47774 15.7095C3.37462 16.2166 3.78179 16.6459 4.29924 16.6459Z" fill="#7077FF" stroke="#7077FF" stroke-width="1.375" stroke-linecap="round" stroke-linejoin="round"/>
    <path d="M13.4375 11.8334C15.3431 11.8334 16.1235 13.8023 16.4386 15.2214C16.6087 15.9877 15.9889 16.6459 15.2038 16.6459H14.3542" stroke="#7077FF" stroke-width="1.375" stroke-linecap="round" stroke-linejoin="round"/>
    <path d="M7.70833 8.39592C9.10055 8.39592 10.2292 7.2673 10.2292 5.87508C10.2292 4.48286 9.10055 3.35425 7.70833 3.35425C6.31612 3.35425 5.1875 4.48286 5.1875 5.87508C5.1875 7.2673 6.31612 8.39592 7.70833 8.39592Z" fill="#7077FF" stroke="#7077FF" stroke-width="1.375" stroke-linecap="round" stroke-linejoin="round"/>
    <path d="M12.5208 8.39592C13.913 8.39592 14.8124 7.2673 14.8124 5.87508C14.8124 4.48287 13.913 3.35425 12.5208 3.35425" stroke="#7077FF" stroke-width="1.375" stroke-linecap="round" stroke-linejoin="round"/>
</svg>