<svg width="20" height="20" viewBox="0 0 20 20" fill="none" xmlns="http://www.w3.org/2000/svg">
<g clip-path="url(#clip0_1220_9053)">
<path d="M15.0001 15.8334H16.6664C17.633 15.8334 18.4237 14.9986 18.1279 14.0783C17.3129 11.5437 15.2129 10.4939 13.3335 10.929M9.1668 5.83337C9.1668 7.21409 8.04751 8.33337 6.6668 8.33337C5.28609 8.33337 4.1668 7.21409 4.1668 5.83337C4.1668 4.45266 5.28609 3.33337 6.6668 3.33337C8.04751 3.33337 9.1668 4.45266 9.1668 5.83337ZM16.2501 6.25004C16.2501 7.40063 15.3174 8.33337 14.1668 8.33337C13.0162 8.33337 12.0835 7.40063 12.0835 6.25004C12.0835 5.09945 13.0162 4.16671 14.1668 4.16671C15.3174 4.16671 16.2501 5.09945 16.2501 6.25004ZM9.87851 16.6667H3.45509C2.48847 16.6667 1.70358 15.833 1.96333 14.9019C3.47672 9.47719 9.85688 9.47719 11.3703 14.9019C11.63 15.833 10.8451 16.6667 9.87851 16.6667Z" stroke="#A1A1AA" stroke-width="1.4" stroke-linecap="round" stroke-linejoin="round"/>
</g>
<defs>
<clipPath id="clip0_1220_9053">
<rect width="20" height="20" fill="white"/>
</clipPath>
</defs>
</svg>
