<svg width="20" height="20" viewBox="0 0 20 20" fill="none" xmlns="http://www.w3.org/2000/svg">
<g clip-path="url(#clip0_1220_9081)">
<path d="M12.173 14.6779C11.3284 11.6505 9.05917 10 6.66686 10C4.27454 10 2.00529 11.6505 1.1607 14.6779C0.719087 16.2609 2.06918 17.5 3.45514 17.5H9.87857C11.2645 17.5 12.6146 16.2609 12.173 14.6779Z" fill="#7077FF"/>
<path d="M3.33333 5.83333C3.33333 3.99238 4.82572 2.5 6.66667 2.5C8.50762 2.5 10 3.99238 10 5.83333C10 7.67428 8.50762 9.16667 6.66667 9.16667C4.82572 9.16667 3.33333 7.67428 3.33333 5.83333Z" fill="#7077FF"/>
<path d="M11.25 6.25C11.25 4.63917 12.5558 3.33333 14.1667 3.33333C15.7775 3.33333 17.0833 4.63917 17.0833 6.25C17.0833 7.86083 15.7775 9.16667 14.1667 9.16667C12.5558 9.16667 11.25 7.86083 11.25 6.25Z" fill="#7077FF"/>
<path d="M11.8298 10.6443C12.7016 11.5912 13.3803 12.8029 13.7784 14.2301C14.0232 15.1073 13.9485 15.9439 13.6573 16.6667H16.9218C18.1697 16.6667 19.4076 15.5467 19.0031 14.0967C18.2666 11.4568 16.2793 10 14.1689 10C13.3485 10 12.5468 10.2201 11.8298 10.6443Z" fill="#7077FF"/>
</g>
<defs>
<clipPath id="clip0_1220_9081">
<rect width="20" height="20" fill="white"/>
</clipPath>
</defs>
</svg>
