<svg width="20" height="20" viewBox="0 0 20 20" fill="none" xmlns="http://www.w3.org/2000/svg">
    <g clip-path="url(#clip0_1220_9076)">
        <path fill-rule="evenodd" clip-rule="evenodd" d="M4.16675 1.66663C2.78604 1.66663 1.66675 2.78591 1.66675 4.16663V12.5C1.66675 13.8807 2.78604 15 4.16675 15H5.00008V15.8333C5.00008 17.214 6.11937 18.3333 7.50008 18.3333H15.8334C17.2141 18.3333 18.3334 17.214 18.3334 15.8333V7.49996C18.3334 6.11925 17.2141 4.99996 15.8334 4.99996H15.0001V4.16663C15.0001 2.78591 13.8808 1.66663 12.5001 1.66663H4.16675ZM13.3334 4.99996V4.16663C13.3334 3.70639 12.9603 3.33329 12.5001 3.33329H4.16675C3.70651 3.33329 3.33341 3.70639 3.33341 4.16663V12.5C3.33341 12.9602 3.70651 13.3333 4.16675 13.3333H5.00008V7.49996C5.00008 6.11925 6.11937 4.99996 7.50008 4.99996H13.3334ZM11.6667 12.0833C12.8173 12.0833 13.7501 11.1506 13.7501 9.99996C13.7501 8.84937 12.8173 7.91663 11.6667 7.91663C10.5162 7.91663 9.58341 8.84937 9.58341 9.99996C9.58341 11.1506 10.5162 12.0833 11.6667 12.0833ZM8.12645 16.6666C7.82876 16.6666 7.62884 16.3616 7.76578 16.0973C9.67523 12.412 13.6583 12.412 15.5677 16.0973C15.7047 16.3616 15.5047 16.6666 15.207 16.6666H8.12645Z" fill="#7077FF"/>
    </g>
    <defs>
        <clipPath id="clip0_1220_9076">
            <rect width="20" height="20" fill="white"/>
        </clipPath>
    </defs>
</svg>