<svg width="20" height="20" viewBox="0 0 20 20" fill="none" xmlns="http://www.w3.org/2000/svg">
<path d="M14.1667 5.83333V4.16667C14.1667 3.24619 13.4205 2.5 12.5 2.5H4.16667C3.24619 2.5 2.5 3.24619 2.5 4.16667V12.5C2.5 13.4205 3.24619 14.1667 4.16667 14.1667H5.83333M7.93945 17.5C8.14672 15.625 9.73634 14.1667 11.6666 14.1667C13.5968 14.1667 15.1864 15.625 15.3937 17.5M13.3333 10.4167C13.3333 11.3371 12.5871 12.0833 11.6667 12.0833C10.7462 12.0833 10 11.3371 10 10.4167C10 9.49619 10.7462 8.75 11.6667 8.75C12.5871 8.75 13.3333 9.49619 13.3333 10.4167ZM15.8333 17.5H7.5C6.57953 17.5 5.83333 16.7538 5.83333 15.8333V7.5C5.83333 6.57953 6.57953 5.83333 7.5 5.83333H15.8333C16.7538 5.83333 17.5 6.57953 17.5 7.5V15.8333C17.5 16.7538 16.7538 17.5 15.8333 17.5Z" stroke="#A1A1AA" stroke-width="1.4" stroke-linecap="round" stroke-linejoin="round"/>
</svg>
