<svg width="20" height="20" viewBox="0 0 20 20" fill="none" xmlns="http://www.w3.org/2000/svg">
<path d="M9.99992 15.2083C12.9166 15.2083 16.0416 13.75 16.0416 9.99996C16.0416 6.24996 12.9166 4.79163 9.99992 4.79163C7.08325 4.79163 3.95825 6.24996 3.95825 9.99996C3.95825 10.8581 4.12191 11.5963 4.40928 12.2244C4.5884 12.616 4.68888 13.0477 4.60954 13.4709L4.39104 14.6362C4.28304 15.2122 4.78764 15.7169 5.36368 15.6089L8.03649 15.1077C8.24658 15.0683 8.462 15.0717 8.67308 15.1052C9.11242 15.1749 9.55859 15.2083 9.99992 15.2083Z" fill="#27272A" stroke="#27272A" stroke-width="1.5" stroke-linecap="round" stroke-linejoin="round"/>
<path d="M7.91659 10C7.91659 10.2301 7.73004 10.4167 7.49992 10.4167C7.2698 10.4167 7.08325 10.2301 7.08325 10C7.08325 9.76996 7.2698 9.58337 7.49992 9.58337C7.73004 9.58337 7.91659 9.76996 7.91659 10Z" stroke="white" stroke-linecap="round" stroke-linejoin="round"/>
<path d="M10.4166 10C10.4166 10.2301 10.23 10.4167 9.99992 10.4167C9.76984 10.4167 9.58325 10.2301 9.58325 10C9.58325 9.76996 9.76984 9.58337 9.99992 9.58337C10.23 9.58337 10.4166 9.76996 10.4166 10Z" stroke="white" stroke-linecap="round" stroke-linejoin="round"/>
<path d="M12.9166 10C12.9166 10.2301 12.73 10.4167 12.4999 10.4167C12.2698 10.4167 12.0833 10.2301 12.0833 10C12.0833 9.76996 12.2698 9.58337 12.4999 9.58337C12.73 9.58337 12.9166 9.76996 12.9166 10Z" stroke="white" stroke-linecap="round" stroke-linejoin="round"/>
</svg>
