<svg width="20" height="20" viewBox="0 0 20 20" fill="none" xmlns="http://www.w3.org/2000/svg">
    <path fill-rule="evenodd" clip-rule="evenodd" d="M1.6665 10C1.6665 5.39765 5.39746 1.66669 9.99984 1.66669C14.6022 1.66669 18.3332 5.39765 18.3332 10C18.3332 14.6024 14.6022 18.3334 9.99984 18.3334C5.39746 18.3334 1.6665 14.6024 1.6665 10ZM10.8332 4.99921C10.8332 4.53897 10.4601 4.16587 9.99984 4.16587C9.5396 4.16587 9.16651 4.53897 9.16651 4.99921V5.49717C8.73884 5.58512 8.33378 5.75099 7.98959 6.02235C7.39589 6.49042 7.09411 7.18498 7.09411 8.00075C7.09411 8.95425 7.48648 9.61822 8.08808 10.0613C8.55822 10.4076 9.15102 10.6054 9.59497 10.7535C9.64256 10.7694 9.68846 10.7847 9.7323 10.7995L9.81769 10.8285C10.3338 11.0031 10.6753 11.1187 10.9232 11.3013C11.1036 11.4342 11.2389 11.6026 11.2389 12.0199C11.2389 12.4007 11.1153 12.5814 10.9782 12.6895C10.8104 12.8218 10.5002 12.9372 9.99984 12.9372C9.40139 12.9372 9.04452 12.6688 8.86973 12.3551C8.64575 11.953 8.13824 11.8086 7.73618 12.0326C7.33413 12.2566 7.18977 12.7641 7.41375 13.1662C7.77678 13.8178 8.39018 14.2996 9.16651 14.5006V15C9.16651 15.4603 9.5396 15.8334 9.99984 15.8334C10.4601 15.8334 10.8332 15.4603 10.8332 15V14.5235C11.2608 14.4355 11.6659 14.2697 12.0101 13.9983C12.6038 13.5302 12.9056 12.8357 12.9056 12.0199C12.9056 11.0664 12.5132 10.4024 11.9116 9.95937C11.4415 9.61311 10.8487 9.4153 10.4047 9.26716C10.3571 9.25128 10.3112 9.23597 10.2674 9.22111L10.182 9.19219C9.66588 9.01751 9.32441 8.90194 9.07644 8.71931C8.89609 8.58648 8.76077 8.41804 8.76077 8.00075C8.76077 7.61998 8.88437 7.43925 9.02147 7.33117C9.18923 7.1989 9.49952 7.0835 9.99984 7.0835C10.5983 7.0835 10.9552 7.35185 11.1299 7.6656C11.3539 8.06766 11.8614 8.21202 12.2635 7.98803C12.6656 7.76405 12.8099 7.25654 12.5859 6.85449C12.2229 6.20283 11.6095 5.72106 10.8332 5.52009V4.99921Z" fill="#D97706"/>
</svg>