<svg width="21" height="20" viewBox="0 0 21 20" fill="none" xmlns="http://www.w3.org/2000/svg">
    <path d="M14.0349 4.1813L14.7113 2.82866C14.8648 2.52155 15.3031 2.52155 15.4566 2.82866L16.1329 4.1813C16.1732 4.26193 16.2386 4.32732 16.3193 4.36763L17.6719 5.04395C17.979 5.19751 17.979 5.63576 17.6719 5.78931L16.3193 6.46563C16.2386 6.50595 16.1732 6.57133 16.1329 6.65197L15.4566 8.00461C15.3031 8.31171 14.8648 8.31171 14.7113 8.00461L14.0349 6.65197C13.9946 6.57133 13.9292 6.50595 13.8486 6.46563L12.496 5.78931C12.1888 5.63576 12.1889 5.19751 12.496 5.04395L13.8486 4.36763C13.9292 4.32732 13.9946 4.26193 14.0349 4.1813Z" fill="#76767F"/>
    <path d="M10.5444 2.99972C10.7273 2.73432 10.7407 2.38723 10.5789 2.10846C10.4171 1.8297 10.109 1.66925 9.78783 1.69647C5.51914 2.05816 2.16797 5.63639 2.16797 9.99821C2.16797 14.5997 5.89823 18.33 10.4997 18.33C14.8617 18.33 18.4399 14.9787 18.8015 10.7098C18.8287 10.3887 18.6683 10.0806 18.3895 9.91879C18.1107 9.75698 17.7636 9.77044 17.4982 9.95336C16.6931 10.5083 15.7181 10.8331 14.6647 10.8331C11.9033 10.8331 9.66471 8.59452 9.66471 5.8331C9.66471 4.77977 9.9895 3.80481 10.5444 2.99972Z" fill="#76767F"/>
</svg>