<svg width="20" height="20" viewBox="0 0 20 20" fill="none" xmlns="http://www.w3.org/2000/svg">
<path d="M11.5791 3.50837C11.2902 2.44702 10.3196 1.66663 9.16667 1.66663C7.78595 1.66663 6.66667 2.78591 6.66667 4.16663C6.66667 5.54734 7.78595 6.66663 9.16667 6.66663C9.49187 6.66663 9.80258 6.60453 10.0876 6.49155M11.5791 3.50837C11.8641 3.39539 12.1748 3.33329 12.5 3.33329C13.8807 3.33329 15 4.45258 15 5.83329C15 7.214 13.8807 8.33329 12.5 8.33329C11.3471 8.33329 10.3765 7.5529 10.0876 6.49155M11.5791 3.50837C10.4098 3.97193 9.75956 5.28663 10.0876 6.49155M5.83333 16.6666H7.5C7.5 16.6666 9.49304 17.4361 10.8333 17.5C13.7886 17.6407 16.1361 16.2659 18.0375 14.1748C18.4717 13.6972 18.4644 12.9763 18.0612 12.4723C17.5414 11.8226 16.5645 11.77 15.9127 12.2872C15.1946 12.8571 14.2415 13.4982 13.3333 13.75C12.0789 14.0977 10.8333 14.1666 10.8333 14.1666C17.5 13.7499 15 8.33317 5.83333 12.0833M4.16667 17.5C3.24619 17.5 2.5 16.7538 2.5 15.8333V12.5C2.5 11.5795 3.24619 10.8333 4.16667 10.8333C5.08714 10.8333 5.83333 11.5795 5.83333 12.5V15.8333C5.83333 16.7538 5.08714 17.5 4.16667 17.5Z" stroke="#A1A1AA" stroke-width="1.4" stroke-linejoin="round"/>
</svg>
