<svg width="20" height="20" viewBox="0 0 20 20" fill="none" xmlns="http://www.w3.org/2000/svg">
<g clip-path="url(#clip0_1220_9072)">
<path d="M8.17346 7.34954C8.00717 6.87497 7.91675 6.36473 7.91675 5.83337C7.91675 3.78435 9.26133 2.04938 11.1163 1.46264C10.5681 1.0667 9.89466 0.833374 9.16675 0.833374C7.3258 0.833374 5.83341 2.32576 5.83341 4.16671C5.83341 5.66172 6.81763 6.92686 8.17346 7.34954Z" fill="#7077FF"/>
<path d="M12.5001 2.50004C12.068 2.50004 11.6532 2.58268 11.2721 2.73377C10.0402 3.22211 9.16675 4.42472 9.16675 5.83337C9.16675 6.13581 9.20724 6.4301 9.28358 6.71052C9.66872 8.12532 10.9617 9.16671 12.5001 9.16671C14.341 9.16671 15.8334 7.67432 15.8334 5.83337C15.8334 3.99242 14.341 2.50004 12.5001 2.50004Z" fill="#7077FF"/>
<path fill-rule="evenodd" clip-rule="evenodd" d="M6.66675 12.6501V15.8334H7.50008C7.60267 15.8334 7.70438 15.8523 7.80009 15.8892L7.80353 15.8906L7.8179 15.896C7.83107 15.901 7.85129 15.9086 7.87791 15.9185C7.93119 15.9382 8.00996 15.967 8.10912 16.0019C8.30784 16.0718 8.58637 16.1658 8.90427 16.2614C9.55889 16.4584 10.3105 16.6409 10.8731 16.6676C13.5062 16.793 15.6299 15.5841 17.421 13.6142C17.5557 13.4662 17.5809 13.2059 17.4106 12.993C17.2128 12.7458 16.769 12.6717 16.4308 12.9401C15.694 13.5248 14.6324 14.2547 13.556 14.5531C12.9566 14.7193 12.366 14.8249 11.8975 14.8912C11.5884 14.9387 11.2617 14.974 10.9182 14.9963L10.8997 14.9976L10.886 14.9984L10.8818 14.9986L10.8804 14.9987L10.8794 14.9988C10.4211 15.0241 10.0285 14.674 10.0015 14.2157C9.97453 13.7574 10.3232 13.3636 10.7814 13.335C10.7934 13.3342 10.8053 13.3335 10.8172 13.3327L10.831 13.3318C10.8632 13.3295 10.912 13.3258 10.9752 13.3203C11.1018 13.3093 11.285 13.291 11.5059 13.2624C11.5567 13.2558 11.6093 13.2487 11.6635 13.241C12.7013 13.079 13.3103 12.7779 13.5939 12.5208C13.6767 12.4456 13.7208 12.3842 13.7432 12.3433C13.7647 12.304 13.7663 12.2839 13.7665 12.2808C13.7667 12.2787 13.7671 12.2728 13.761 12.2583C13.7538 12.2411 13.7336 12.2037 13.6817 12.1517C13.4456 11.9157 12.7565 11.5893 11.427 11.6015C10.2395 11.6124 8.64477 11.8961 6.66675 12.6501ZM15.3273 11.6878C15.2279 11.4187 15.0643 11.1774 14.8602 10.9732C14.1587 10.2717 12.9208 9.92107 11.4117 9.93493C10.014 9.94777 8.26501 10.2712 6.1998 11.0448C5.74617 10.4122 5.0046 10 4.16675 10C2.78604 10 1.66675 11.1193 1.66675 12.5V15.8334C1.66675 17.2141 2.78604 18.3334 4.16675 18.3334C4.90716 18.3334 5.5724 18.0115 6.03017 17.5H7.34964C7.40498 17.5203 7.47442 17.5454 7.55575 17.574C7.77261 17.6503 8.07611 17.7527 8.424 17.8574C9.10097 18.0611 10.016 18.2954 10.7938 18.3324C14.0711 18.4885 16.6425 16.9478 18.6542 14.7355C19.388 13.9285 19.3481 12.7469 18.712 11.9518C17.8702 10.8995 16.3601 10.8685 15.3948 11.6346C15.3724 11.6523 15.3499 11.67 15.3273 11.6878Z" fill="#7077FF"/>
</g>
<defs>
<clipPath id="clip0_1220_9072">
<rect width="20" height="20" fill="white"/>
</clipPath>
</defs>
</svg>
