<svg width="20" height="20" viewBox="0 0 20 20" fill="none" xmlns="http://www.w3.org/2000/svg">
    <path d="M12.0625 10C12.0625 11.1391 11.1391 12.0625 10 12.0625C8.86095 12.0625 7.9375 11.1391 7.9375 10C7.9375 8.86095 8.86095 7.9375 10 7.9375C11.1391 7.9375 12.0625 8.86095 12.0625 10Z" stroke="#A3A3A3" stroke-width="1.375" stroke-linecap="round" stroke-linejoin="round"/>
    <path d="M3.35425 6.12952L3.66806 5.51782C3.45493 5.40848 3.20026 5.41796 2.99584 5.54283C2.79142 5.66771 2.66675 5.88998 2.66675 6.12952H3.35425ZM16.6459 6.12952H17.3334C17.3334 5.89847 17.2174 5.68288 17.0245 5.55566L16.6459 6.12952ZM3.35425 13.8958H2.66675C2.66675 14.1406 2.79699 14.367 3.00866 14.4901L3.35425 13.8958ZM16.6459 13.8958L16.4066 14.5403C16.6176 14.6187 16.8536 14.5888 17.0384 14.4603C17.2232 14.3317 17.3334 14.1209 17.3334 13.8958H16.6459ZM3.35425 6.12952C3.04044 6.74122 3.04074 6.74138 3.04105 6.74153C3.04117 6.7416 3.04149 6.74176 3.04173 6.74188C3.04221 6.74213 3.04273 6.74239 3.0433 6.74268C3.04444 6.74326 3.04576 6.74393 3.04727 6.74469C3.05029 6.74621 3.05405 6.74809 3.05853 6.7503C3.0675 6.75473 3.07939 6.76051 3.09413 6.76749C3.12359 6.78146 3.16447 6.80025 3.21622 6.82266C3.31964 6.86745 3.46678 6.92683 3.65305 6.99102C4.02517 7.11924 4.55635 7.26767 5.20946 7.35655C6.51886 7.53473 8.31965 7.47309 10.2958 6.53162L9.70436 5.29031C8.0138 6.09574 6.49172 6.14337 5.39487 5.99411C4.84486 5.91926 4.40208 5.79478 4.10102 5.69104C3.9507 5.63924 3.83644 5.59286 3.76263 5.56089C3.72575 5.54492 3.69904 5.53259 3.68308 5.52501C3.6751 5.52124 3.66981 5.51864 3.66728 5.5174C3.66602 5.51677 3.66545 5.51648 3.66557 5.51654C3.66563 5.51658 3.66587 5.5167 3.66628 5.51691C3.66649 5.51701 3.66674 5.51714 3.66704 5.5173C3.66719 5.51737 3.66745 5.5175 3.66752 5.51753C3.66778 5.51767 3.66806 5.51782 3.35425 6.12952ZM10.2958 6.53162C11.9617 5.73797 13.4599 5.78922 14.5458 6.03562C15.0912 6.15936 15.5316 6.33246 15.8326 6.47279C15.9827 6.54281 16.097 6.60417 16.1713 6.6463C16.2083 6.66734 16.2352 6.68352 16.2514 6.6935C16.2595 6.69848 16.2649 6.70191 16.2676 6.70362C16.269 6.70447 16.2696 6.70489 16.2695 6.70486C16.2695 6.70485 16.2693 6.70472 16.269 6.70447C16.2688 6.70435 16.2685 6.7042 16.2682 6.70401C16.2682 6.70392 16.2679 6.70377 16.2678 6.70372C16.2676 6.70355 16.2673 6.70338 16.6459 6.12952C17.0245 5.55566 17.0242 5.55547 17.0239 5.55527C17.0239 5.5552 17.0235 5.55499 17.0233 5.55484C17.0228 5.55454 17.0223 5.55421 17.0217 5.55385C17.0206 5.55313 17.0194 5.55229 17.0179 5.55134C17.015 5.54943 17.0113 5.54706 17.0069 5.54425C16.9981 5.53862 16.9863 5.53123 16.9717 5.52225C16.9425 5.50429 16.9018 5.47994 16.8502 5.45066C16.7472 5.39212 16.6002 5.31358 16.4137 5.22663C16.0415 5.05304 15.5079 4.84395 14.8502 4.6947C13.5298 4.39509 11.7052 4.33706 9.70436 5.29031L10.2958 6.53162ZM3.35425 13.8958C3.00866 14.4901 3.00893 14.4902 3.00921 14.4904C3.00932 14.4905 3.00962 14.4907 3.00984 14.4908C3.01027 14.4911 3.01075 14.4913 3.01129 14.4916C3.01235 14.4922 3.0136 14.493 3.01502 14.4938C3.01788 14.4954 3.02147 14.4975 3.0258 14.4999C3.03444 14.5047 3.04599 14.5111 3.06039 14.519C3.08918 14.5346 3.12937 14.5559 3.18038 14.5815C3.28237 14.6329 3.42798 14.702 3.61264 14.7789C3.98147 14.9325 4.50931 15.1189 5.15927 15.257C6.46022 15.5334 8.26245 15.6186 10.2482 14.8498L9.75194 13.5676C8.07108 14.2183 6.55036 14.1469 5.44506 13.912C4.89189 13.7945 4.44578 13.6365 4.14143 13.5097C3.98951 13.4463 3.87371 13.3912 3.79846 13.3533C3.76085 13.3344 3.73345 13.3198 3.71681 13.3108C3.70849 13.3063 3.70287 13.3032 3.70001 13.3015C3.69858 13.3008 3.69785 13.3003 3.69782 13.3003C3.69781 13.3003 3.69796 13.3004 3.6983 13.3006C3.69847 13.3007 3.69868 13.3008 3.69893 13.301C3.69906 13.301 3.69929 13.3011 3.69935 13.3011C3.69958 13.3013 3.69983 13.3014 3.35425 13.8958ZM10.2482 14.8498C11.9651 14.1853 13.5188 14.1127 14.6415 14.2051C15.2028 14.2514 15.6544 14.3389 15.9613 14.4132C16.1145 14.4504 16.2313 14.4842 16.3071 14.5076C16.345 14.5194 16.3727 14.5286 16.3894 14.5343C16.3978 14.5372 16.4035 14.5392 16.4063 14.5402C16.4078 14.5407 16.4085 14.541 16.4086 14.541C16.4086 14.541 16.4084 14.5409 16.4081 14.5408C16.4079 14.5407 16.4077 14.5406 16.4075 14.5406C16.4073 14.5406 16.4071 14.5405 16.407 14.5405C16.4068 14.5404 16.4066 14.5403 16.6459 13.8958C16.8853 13.2513 16.885 13.2512 16.8847 13.2511C16.8846 13.2511 16.8843 13.2509 16.8841 13.2508C16.8837 13.2507 16.8831 13.2505 16.8827 13.2504C16.8816 13.2499 16.8803 13.2494 16.8789 13.249C16.8761 13.2479 16.8725 13.2466 16.8682 13.2451C16.8596 13.242 16.848 13.238 16.8337 13.2331C16.805 13.2233 16.7651 13.2101 16.7144 13.1943C16.6129 13.1629 16.4683 13.1213 16.285 13.0769C15.9187 12.9882 15.3963 12.8877 14.7545 12.8348C13.4709 12.729 11.7017 12.8128 9.75194 13.5676L10.2482 14.8498ZM4.04175 13.8958V6.12952H2.66675V13.8958H4.04175ZM15.9584 6.12952V13.8958H17.3334V6.12952H15.9584Z" fill="#A3A3A3"/>
</svg>