<svg width="20" height="20" viewBox="0 0 20 20" fill="none" xmlns="http://www.w3.org/2000/svg">
<path d="M11.6666 11.0416C11.1439 10.9057 10.5866 10.8333 9.99996 10.8333C7.174 10.8333 5.02995 12.5119 4.15202 14.8857C3.81135 15.8069 4.59856 16.6667 5.58065 16.6667H9.16662M15 12.5V15M15 15V17.5M15 15H12.5M15 15H17.5M12.9166 5.41667C12.9166 7.0275 11.6108 8.33333 9.99996 8.33333C8.38913 8.33333 7.08329 7.0275 7.08329 5.41667C7.08329 3.80584 8.38913 2.5 9.99996 2.5C11.6108 2.5 12.9166 3.80584 12.9166 5.41667Z" stroke="#A1A1AA" stroke-width="1.67" stroke-linecap="round" stroke-linejoin="round"/>
</svg>