<svg width="20" height="20" viewBox="0 0 20 20" fill="none" xmlns="http://www.w3.org/2000/svg">
    <path d="M9.99951 1.66675C7.92844 1.66675 6.24951 3.34568 6.24951 5.41675C6.24951 7.48782 7.92844 9.16675 9.99951 9.16675C12.0706 9.16675 13.7495 7.48782 13.7495 5.41675C13.7495 3.34568 12.0706 1.66675 9.99951 1.66675Z" fill="black"/>
    <path d="M5.83535 11.3093C4.71288 12.122 3.86231 13.2645 3.36959 14.5968C3.3624 14.6162 3.35552 14.6356 3.34895 14.655C3.24077 14.9547 3.15063 15.2637 3.07945 15.5805C2.83797 16.655 3.71894 17.5001 4.6649 17.5001H12.4995C11.1188 17.5001 9.99951 16.3808 9.99951 15.0001C9.99951 13.6194 11.1188 12.5001 12.4995 12.5001C12.4995 11.8134 12.7764 11.1913 13.2246 10.7395C12.2794 10.2666 11.1927 10.0001 9.99955 10.0001C9.86089 10.0001 9.72366 10.0037 9.58792 10.0108" fill="black"/>
    <path d="M14.9995 11.6667C15.4597 11.6667 15.8328 12.0398 15.8328 12.5001V14.1667H17.4995C17.9597 14.1667 18.3328 14.5398 18.3328 15.0001C18.3328 15.4603 17.9597 15.8334 17.4995 15.8334H15.8328V17.5001C15.8328 17.9603 15.4597 18.3334 14.9995 18.3334C14.5393 18.3334 14.1662 17.9603 14.1662 17.5001V15.8334H12.4995C12.0393 15.8334 11.6662 15.4603 11.6662 15.0001C11.6662 14.5398 12.0393 14.1667 12.4995 14.1667H14.1662V12.5001C14.1662 12.0398 14.5393 11.6667 14.9995 11.6667Z" fill="black"/>
</svg>