<svg width="20" height="20" viewBox="0 0 20 20" fill="none" xmlns="http://www.w3.org/2000/svg">
<path fill-rule="evenodd" clip-rule="evenodd" d="M9.99984 18.3327C14.6022 18.3327 18.3332 14.6017 18.3332 9.99935C18.3332 5.39698 14.6022 1.66602 9.99984 1.66602C5.39746 1.66602 1.6665 5.39698 1.6665 9.99935C1.6665 14.6017 5.39746 18.3327 9.99984 18.3327ZM12.4998 8.33268C12.4998 9.71339 11.3805 10.8327 9.99984 10.8327C8.61912 10.8327 7.49984 9.71339 7.49984 8.33268C7.49984 6.95197 8.61912 5.83268 9.99984 5.83268C11.3805 5.83268 12.4998 6.95197 12.4998 8.33268ZM10 16.666C8.13468 16.666 6.44828 15.8999 5.23828 14.6652C6.34806 13.3368 8.00392 12.4993 10 12.4993C11.9961 12.4993 13.6519 13.3368 14.7617 14.6652C13.5517 15.8999 11.8653 16.666 10 16.666Z" fill="#A1A1AA"/>
</svg>
