<svg width="20" height="20" viewBox="0 0 20 20" fill="none" xmlns="http://www.w3.org/2000/svg">
<path d="M9.99984 1.66602C7.92877 1.66602 6.24984 3.34495 6.24984 5.41602C6.24984 7.48708 7.92877 9.16602 9.99984 9.16602C12.0709 9.16602 13.7498 7.48708 13.7498 5.41602C13.7498 3.34495 12.0709 1.66602 9.99984 1.66602Z" fill="#A1A1AA"/>
<path d="M10.0011 9.99935C6.80782 9.99935 4.36389 11.9129 3.37154 14.596C3.08785 15.3631 3.28208 16.1192 3.73305 16.6566C4.17252 17.1804 4.85094 17.4993 5.58177 17.4993H14.4204C15.1512 17.4993 15.8296 17.1804 16.2691 16.6566C16.7201 16.1192 16.9143 15.3631 16.6306 14.596C15.6383 11.9129 13.1943 9.99935 10.0011 9.99935Z" fill="#A1A1AA"/>
</svg>
