<svg width="20" height="20" viewBox="0 0 20 20" fill="none" xmlns="http://www.w3.org/2000/svg">
<path fill-rule="evenodd" clip-rule="evenodd" d="M1.66699 10.0003C1.66699 5.39795 5.39795 1.66699 10.0003 1.66699C14.6027 1.66699 18.3337 5.39795 18.3337 10.0003C18.3337 14.6027 14.6027 18.3337 10.0003 18.3337C5.39795 18.3337 1.66699 14.6027 1.66699 10.0003ZM13.3337 10.8336C13.7939 10.8336 14.167 10.4605 14.167 10.0002C14.167 9.53998 13.7939 9.16689 13.3337 9.16691L10.8337 9.16698V6.66709C10.8337 6.20686 10.4606 5.83376 10.0003 5.83376C9.54009 5.83376 9.16699 6.20686 9.16699 6.66709V9.16702L6.66697 9.16709C6.20673 9.16711 5.83365 9.54021 5.83366 10.0005C5.83367 10.4607 6.20678 10.8338 6.66702 10.8338L9.16699 10.8337V13.3337C9.16699 13.7939 9.54009 14.167 10.0003 14.167C10.4606 14.167 10.8337 13.7939 10.8337 13.3337V10.8336L13.3337 10.8336Z" fill="#A1A1AA"/>
</svg>
