<svg width="20" height="20" viewBox="0 0 20 20" fill="none" xmlns="http://www.w3.org/2000/svg">
    <path fill-rule="evenodd" clip-rule="evenodd" d="M7.49999 1.6665C6.11928 1.6665 4.99999 2.78579 4.99999 4.1665V4.99984H4.16666C2.78594 4.99984 1.66666 6.11913 1.66666 7.49984V12.4998C1.66666 13.8806 2.78594 14.9998 4.16666 14.9998H4.99999V15.8332C4.99999 17.2139 6.11928 18.3332 7.49999 18.3332H12.5C13.8807 18.3332 15 17.2139 15 15.8332V14.9998H15.8333C17.214 14.9998 18.3333 13.8806 18.3333 12.4998V7.49984C18.3333 6.11913 17.214 4.99984 15.8333 4.99984H15V4.1665C15 2.78579 13.8807 1.6665 12.5 1.6665H7.49999ZM13.3333 4.99984V4.1665C13.3333 3.70627 12.9602 3.33317 12.5 3.33317H7.49999C7.03975 3.33317 6.66666 3.70627 6.66666 4.1665V4.99984H13.3333ZM13.3333 12.4998H6.66666V15.8332C6.66666 16.2934 7.03975 16.6665 7.49999 16.6665H12.5C12.9602 16.6665 13.3333 16.2934 13.3333 15.8332V12.4998ZM4.99999 9.1665C4.99999 8.70627 5.37309 8.33317 5.83332 8.33317H7.49999C7.96023 8.33317 8.33332 8.70627 8.33332 9.1665C8.33332 9.62674 7.96023 9.99984 7.49999 9.99984H5.83332C5.37309 9.99984 4.99999 9.62674 4.99999 9.1665Z" fill="#A1A1AA"/>
</svg>