<svg width="20" height="20" viewBox="0 0 20 20" fill="none" xmlns="http://www.w3.org/2000/svg">
<path fill-rule="evenodd" clip-rule="evenodd" d="M5.83398 1.66666C4.45327 1.66666 3.33398 2.78594 3.33398 4.16666V16.157C3.33398 17.1168 4.37084 17.7185 5.20416 17.2423L7.11021 16.1531L9.25529 17.2257C9.72451 17.4603 10.2768 17.4603 10.746 17.2257L12.8911 16.1531L14.7971 17.2423C15.6305 17.7185 16.6673 17.1168 16.6673 16.157V4.16666C16.6673 2.78594 15.548 1.66666 14.1673 1.66666H5.83398ZM7.50065 11.6667C7.50065 11.2064 7.87375 10.8333 8.33398 10.8333H11.6673C12.1276 10.8333 12.5007 11.2064 12.5007 11.6667C12.5007 12.1269 12.1276 12.5 11.6673 12.5H8.33398C7.87375 12.5 7.50065 12.1269 7.50065 11.6667ZM12.0482 6.88091C12.3737 6.55548 12.3737 6.02784 12.0482 5.7024C11.7228 5.37696 11.1952 5.37696 10.8697 5.7024L9.41732 7.15481L9.13157 6.86907C8.80614 6.54363 8.2785 6.54363 7.95306 6.86907C7.62763 7.1945 7.62763 7.72214 7.95306 8.04758L8.82806 8.92258C8.98434 9.07886 9.1963 9.16666 9.41732 9.16666C9.63833 9.16666 9.85029 9.07886 10.0066 8.92258L12.0482 6.88091Z" fill="#A1A1AA"/>
</svg>
