<svg width="20" height="20" viewBox="0 0 20 20" fill="none" xmlns="http://www.w3.org/2000/svg">
    <path d="M15.417 4.58329L12.3886 7.61172M7.60774 12.3925L4.58366 15.4166M4.58366 4.58329L7.60774 7.60737M12.3886 12.3882L15.417 15.4166M17.7087 9.99996C17.7087 14.2572 14.2575 17.7083 10.0003 17.7083C5.74313 17.7083 2.29199 14.2572 2.29199 9.99996C2.29199 5.74276 5.74313 2.29163 10.0003 2.29163C14.2575 2.29163 17.7087 5.74276 17.7087 9.99996ZM13.542 9.99996C13.542 11.956 11.9563 13.5416 10.0003 13.5416C8.04432 13.5416 6.45866 11.956 6.45866 9.99996C6.45866 8.04395 8.04432 6.45829 10.0003 6.45829C11.9563 6.45829 13.542 8.04395 13.542 9.99996Z" stroke="#27272A" stroke-width="1.5"/>
</svg>