<svg width="20" height="20" viewBox="0 0 20 20" fill="none" xmlns="http://www.w3.org/2000/svg">
<path d="M6.65784 4.49796L6.08762 4.36637C5.60543 4.2551 5.09992 4.40008 4.75 4.75C4.40008 5.09992 4.2551 5.60543 4.36637 6.08762L4.49796 6.65784C4.64963 7.31508 4.37862 7.99759 3.81738 8.37175L3.12404 8.83397C2.73417 9.09388 2.5 9.53144 2.5 10C2.5 10.4686 2.73417 10.9061 3.12404 11.166L3.81738 11.6283C4.37862 12.0024 4.64963 12.6849 4.49796 13.3422L4.36637 13.9124C4.2551 14.3946 4.40008 14.9001 4.75 15.25C5.09992 15.5999 5.60543 15.7449 6.08762 15.6336L6.65784 15.502C7.31508 15.3504 7.99759 15.6214 8.37175 16.1826L8.83397 16.876C9.09388 17.2658 9.53144 17.5 10 17.5C10.4686 17.5 10.9061 17.2658 11.166 16.876L11.6283 16.1826C12.0024 15.6214 12.6849 15.3504 13.3422 15.502L13.9124 15.6336C14.3946 15.7449 14.9001 15.5999 15.25 15.25C15.5999 14.9001 15.7449 14.3946 15.6336 13.9124L15.502 13.3422C15.3504 12.6849 15.6214 12.0024 16.1826 11.6283L16.876 11.166C17.2658 10.9061 17.5 10.4686 17.5 10C17.5 9.53144 17.2658 9.09388 16.876 8.83397L16.1826 8.37174C15.6214 7.99759 15.3504 7.31508 15.502 6.65784L15.6336 6.08762C15.7449 5.60543 15.5999 5.09992 15.25 4.75C14.9001 4.40008 14.3946 4.2551 13.9124 4.36637L13.3422 4.49796C12.6849 4.64963 12.0024 4.37862 11.6283 3.81738L11.166 3.12404C10.9061 2.73417 10.4686 2.5 10 2.5C9.53144 2.5 9.09388 2.73417 8.83397 3.12404L8.37175 3.81738C7.99759 4.37862 7.31508 4.64963 6.65784 4.49796Z" stroke="#A1A1AA" stroke-width="2" stroke-linejoin="round"/>
<path d="M12.5 10C12.5 11.3807 11.3807 12.5 10 12.5C8.61929 12.5 7.5 11.3807 7.5 10C7.5 8.61929 8.61929 7.5 10 7.5C11.3807 7.5 12.5 8.61929 12.5 10Z" stroke="#A1A1AA" stroke-width="2" stroke-linejoin="round"/>
</svg>
