<svg width="20" height="20" viewBox="0 0 20 20" fill="none" xmlns="http://www.w3.org/2000/svg">
    <path d="M10.6876 3.35425H14.8126C15.2988 3.35425 15.7651 3.5474 16.1089 3.89122C16.4528 4.23504 16.6459 4.70135 16.6459 5.18758V14.8126C16.6459 15.2988 16.4528 15.7651 16.1089 16.1089C15.7651 16.4528 15.2988 16.6459 14.8126 16.6459H10.6876M3.35425 14.8126V5.18758C3.35425 4.70135 3.5474 4.23504 3.89122 3.89122C4.23504 3.5474 4.70135 3.35425 5.18758 3.35425H7.47925V16.6459H5.18758C4.70135 16.6459 4.23504 16.4528 3.89122 16.1089C3.5474 15.7651 3.35425 15.2988 3.35425 14.8126Z" stroke="#A3A3A3" stroke-width="1.375" stroke-linecap="round" stroke-linejoin="round"/>
</svg>