<svg width="20" height="20" viewBox="0 0 20 20" fill="none" xmlns="http://www.w3.org/2000/svg">
<path d="M1.51562 15.3594C1.22266 15.3594 0.976562 15.1016 0.976562 14.8086C0.976562 14.5098 1.2168 14.2578 1.51562 14.2578H5.4707C5.78711 13.5312 6.30859 12.7695 6.98828 12.0957C5.55273 11.0117 4.29297 9.36523 4.29297 7.4082C4.29297 5.67383 5.47656 4.37891 7.09961 4.37891C9.34375 4.37891 10.8789 6.75781 11.0605 9.89844C11.4707 9.82227 11.8984 9.78125 12.3379 9.78125C13.1641 9.78125 13.6855 10.1914 13.6855 10.8711C13.6855 11.2344 13.498 11.5859 13.498 11.7676C13.498 11.832 13.5332 11.8555 13.5801 11.8555C13.9434 11.8555 15.4375 10.0215 16.498 10.0215C17.752 10.0215 17.2422 11.9316 17.7695 11.9316C17.9395 11.9316 18.1035 11.7852 18.3027 11.7852C18.5957 11.7852 18.7891 12.0312 18.7891 12.3125C18.7891 12.5352 18.6719 12.7109 18.4961 12.8281C18.2441 12.998 17.9043 13.0684 17.6348 13.0684C16.1465 13.0684 16.5566 11.2988 16.1816 11.2988C15.7598 11.2988 14.2773 13.2969 13.041 13.2969C12.543 13.2969 12.1797 12.9805 12.1797 12.4883C12.1797 11.9492 12.4727 11.5625 12.4727 11.0938C12.4727 10.9766 12.3789 10.9004 12.2148 10.9004C11.8223 10.9004 11.4355 10.9473 11.0664 11.0234C11.0254 12.2246 10.8438 13.3203 10.5332 14.2578H18.4785C18.7773 14.2578 19.0176 14.5098 19.0176 14.8086C19.0176 15.1016 18.7773 15.3594 18.4785 15.3594H10.0762C9.36133 16.7305 8.2832 17.5566 6.94141 17.5566C5.74609 17.5566 5.13086 16.8301 5.13086 15.7344C5.13086 15.6113 5.13672 15.4883 5.1543 15.3594H1.51562ZM5.41797 7.40234C5.41797 9.17188 6.66602 10.5195 7.81445 11.3691C8.44727 10.8887 9.16211 10.4844 9.94727 10.2031C9.86523 7.56055 8.74023 5.50391 7.09961 5.50391C6.12695 5.50391 5.41797 6.3125 5.41797 7.40234ZM1.26953 13.0977C1.08789 12.916 1.08789 12.6465 1.26953 12.4707L1.95508 11.7852L1.26953 11.1055C1.08789 10.9297 1.08789 10.6484 1.26953 10.4727C1.44531 10.2969 1.71484 10.2969 1.89648 10.4727L2.58203 11.1582L3.27344 10.4727C3.44922 10.2969 3.71875 10.2969 3.90039 10.4727C4.07617 10.6543 4.07617 10.9238 3.90039 11.0996L3.21484 11.7852L3.90039 12.4707C4.07617 12.6406 4.07617 12.9219 3.90039 13.0977C3.71875 13.2734 3.44922 13.2734 3.27344 13.0977L2.58203 12.4121L1.89648 13.0977C1.71484 13.2734 1.44531 13.2793 1.26953 13.0977ZM8.33008 12.9219C8.20117 12.8574 8.07227 12.7871 7.9375 12.7168C7.41602 13.209 7 13.748 6.71875 14.2578H9.32617C9.63672 13.4551 9.84766 12.4766 9.92383 11.3926C9.53125 11.5684 9.15625 11.7734 8.81641 12.0078C8.82812 12.0195 8.83984 12.0254 8.85156 12.0312C9.0625 12.1543 9.13867 12.3242 9.13867 12.5059C9.13867 12.7754 8.91016 12.9922 8.62305 12.9922C8.5293 12.9922 8.42969 12.9746 8.33008 12.9219ZM6.30273 15.5879C6.30273 16.0918 6.55469 16.4316 7.07031 16.4316C7.71484 16.4316 8.28906 16.0391 8.75781 15.3594H6.32031C6.30859 15.4355 6.30273 15.5117 6.30273 15.5879Z" fill="#27272A"/>
</svg>
