<svg width="21" height="20" viewBox="0 0 21 20" fill="none" xmlns="http://www.w3.org/2000/svg">
    <g filter="url(#filter0_i_4480_1151)">
    <rect x="0.5" width="20" height="20" rx="10" fill="#3B82F6"/>
    <path fill-rule="evenodd" clip-rule="evenodd" d="M10.5001 15.8337C13.7217 15.8337 16.3334 13.222 16.3334 10.0003C16.3334 6.77866 13.7217 4.16699 10.5001 4.16699C7.27842 4.16699 4.66675 6.77866 4.66675 10.0003C4.66675 13.222 7.27842 15.8337 10.5001 15.8337ZM11.0834 7.66699C11.0834 7.34483 10.8222 7.08366 10.5001 7.08366C10.1779 7.08366 9.91675 7.34483 9.91675 7.66699V10.0003C9.91675 10.155 9.97821 10.3034 10.0876 10.4128L11.5459 11.8711C11.7737 12.0989 12.1431 12.0989 12.3709 11.8711C12.5987 11.6433 12.5987 11.274 12.3709 11.0462L11.0834 9.7587V7.66699Z" fill="white"/>
    </g>
    <defs>
    <filter id="filter0_i_4480_1151" x="0.5" y="0" width="20" height="20" filterUnits="userSpaceOnUse" color-interpolation-filters="sRGB">
    <feFlood flood-opacity="0" result="BackgroundImageFix"/>
    <feBlend mode="normal" in="SourceGraphic" in2="BackgroundImageFix" result="shape"/>
    <feColorMatrix in="SourceAlpha" type="matrix" values="0 0 0 0 0 0 0 0 0 0 0 0 0 0 0 0 0 0 127 0" result="hardAlpha"/>
    <feOffset dy="-1"/>
    <feComposite in2="hardAlpha" operator="arithmetic" k2="-1" k3="1"/>
    <feColorMatrix type="matrix" values="0 0 0 0 0.152941 0 0 0 0 0.152941 0 0 0 0 0.164706 0 0 0 0.06 0"/>
    <feBlend mode="normal" in2="shape" result="effect1_innerShadow_4480_1151"/>
    </filter>
    </defs>
</svg>