<svg width="16" height="16" viewBox="0 0 16 16" fill="none" xmlns="http://www.w3.org/2000/svg">
    <g clip-path="url(#clip0_1654_2414)">
        <rect x="0.5" y="0.5" width="15" height="15" rx="7.5" fill="#22C55E" stroke="#22C55E"/>
        <path d="M6.55488 10.7013L6.55517 10.7015C6.80248 10.9451 7.19816 10.9438 7.44387 10.6986L7.4439 10.6986L11.9457 6.20506L11.9462 6.20458C12.193 5.9557 12.193 5.55266 11.9462 5.30378C11.6989 5.05439 11.2975 5.05429 11.0501 5.30349C11.05 5.30359 11.0499 5.30368 11.0498 5.30378L6.99975 9.3391L4.94761 7.31978C4.70014 7.07091 4.29899 7.07111 4.05177 7.3204C3.80496 7.56927 3.80496 7.97232 4.05177 8.22119L4.05177 8.22119L4.0526 8.22202L6.55488 10.7013Z" fill="white" stroke="white" stroke-width="0.266667"/>
    </g>
    <defs>
        <clipPath id="clip0_1654_2414">
            <rect width="16" height="16" fill="white"/>
        </clipPath>
    </defs>
</svg>