<svg width="21" height="20" viewBox="0 0 21 20" fill="none" xmlns="http://www.w3.org/2000/svg">
    <path d="M11.332 1.66671C11.332 1.20647 10.9589 0.833374 10.4987 0.833374C10.0385 0.833374 9.66536 1.20647 9.66536 1.66671V2.50004C9.66536 2.96028 10.0385 3.33337 10.4987 3.33337C10.9589 3.33337 11.332 2.96028 11.332 2.50004V1.66671Z" fill="#76767F"/>
    <path d="M11.332 17.5001C11.332 17.0398 10.9589 16.6667 10.4987 16.6667C10.0385 16.6667 9.66536 17.0398 9.66536 17.5001V18.3334C9.66536 18.7936 10.0385 19.1667 10.4987 19.1667C10.9589 19.1667 11.332 18.7936 11.332 18.3334V17.5001Z" fill="#76767F"/>
    <path d="M16.9795 3.51916C17.3049 3.8446 17.3049 4.37224 16.9795 4.69767L16.3878 5.28934C16.0624 5.61478 15.5347 5.61478 15.2093 5.28934C14.8839 4.9639 14.8839 4.43627 15.2093 4.11083L15.801 3.51916C16.1264 3.19373 16.6541 3.19373 16.9795 3.51916Z" fill="#76767F"/>
    <path d="M5.78808 15.8893C6.11352 15.5638 6.11352 15.0362 5.78808 14.7108C5.46265 14.3853 4.93501 14.3853 4.60957 14.7108L4.01791 15.3024C3.69247 15.6279 3.69247 16.1555 4.01791 16.4809C4.34334 16.8064 4.87098 16.8064 5.19642 16.4809L5.78808 15.8893Z" fill="#76767F"/>
    <path d="M17.1654 10.0001C17.1654 9.53982 17.5385 9.16672 17.9987 9.16672H18.832C19.2923 9.16672 19.6654 9.53982 19.6654 10.0001C19.6654 10.4603 19.2923 10.8334 18.832 10.8334H17.9987C17.5385 10.8334 17.1654 10.4603 17.1654 10.0001Z" fill="#76767F"/>
    <path d="M2.16536 9.16672C1.70513 9.16672 1.33203 9.53982 1.33203 10.0001C1.33203 10.4603 1.70513 10.8334 2.16536 10.8334H2.9987C3.45894 10.8334 3.83203 10.4603 3.83203 10.0001C3.83203 9.53982 3.45894 9.16672 2.9987 9.16672H2.16536Z" fill="#76767F"/>
    <path d="M15.2093 14.7108C15.5347 14.3853 16.0624 14.3853 16.3878 14.7108L16.9795 15.3024C17.3049 15.6279 17.3049 16.1555 16.9795 16.4809C16.6541 16.8064 16.1264 16.8064 15.801 16.4809L15.2093 15.8893C14.8839 15.5638 14.8839 15.0362 15.2093 14.7108Z" fill="#76767F"/>
    <path d="M5.19642 3.51916C4.87098 3.19373 4.34334 3.19373 4.01791 3.51916C3.69247 3.8446 3.69247 4.37224 4.01791 4.69767L4.60957 5.28934C4.93501 5.61478 5.46265 5.61478 5.78808 5.28934C6.11352 4.9639 6.11352 4.43627 5.78808 4.11083L5.19642 3.51916Z" fill="#76767F"/>
    <path d="M6.96316 6.46451C8.91578 4.51189 12.0816 4.51189 14.0342 6.46451C15.9869 8.41713 15.9869 11.583 14.0342 13.5356C12.0816 15.4882 8.91578 15.4882 6.96316 13.5356C5.01054 11.583 5.01054 8.41713 6.96316 6.46451Z" fill="#76767F"/>
</svg>