<svg width="20" height="20" viewBox="0 0 20 20" fill="none" xmlns="http://www.w3.org/2000/svg">
    <path fill-rule="evenodd" clip-rule="evenodd" d="M10.0013 1.66663C10.4615 1.66663 10.8346 2.03972 10.8346 2.49996V3.33329C10.8346 3.79353 10.4615 4.16663 10.0013 4.16663C9.54106 4.16663 9.16797 3.79353 9.16797 3.33329V2.49996C9.16797 2.03972 9.54106 1.66663 10.0013 1.66663ZM1.66797 9.99996C1.66797 9.53972 2.04106 9.16663 2.5013 9.16663H3.33464C3.79487 9.16663 4.16797 9.53972 4.16797 9.99996C4.16797 10.4602 3.79487 10.8333 3.33464 10.8333H2.5013C2.04106 10.8333 1.66797 10.4602 1.66797 9.99996ZM15.8346 9.99996C15.8346 9.53972 16.2077 9.16663 16.668 9.16663H17.5013C17.9615 9.16663 18.3346 9.53972 18.3346 9.99996C18.3346 10.4602 17.9615 10.8333 17.5013 10.8333H16.668C16.2077 10.8333 15.8346 10.4602 15.8346 9.99996Z" fill="#76767F"/>
    <path fill-rule="evenodd" clip-rule="evenodd" d="M14.1256 5.87517C13.8002 5.54973 13.8002 5.0221 14.1256 4.69666L14.7148 4.1074C15.0403 3.78197 15.5679 3.78197 15.8934 4.1074C16.2188 4.43284 16.2188 4.96048 15.8934 5.28592L15.3041 5.87517C14.9787 6.20061 14.451 6.20061 14.1256 5.87517Z" fill="#76767F"/>
    <path fill-rule="evenodd" clip-rule="evenodd" d="M1.66797 13.3333C1.66797 12.8731 2.04106 12.5 2.5013 12.5H17.5013C17.9615 12.5 18.3346 12.8731 18.3346 13.3333C18.3346 13.7935 17.9615 14.1666 17.5013 14.1666H2.5013C2.04106 14.1666 1.66797 13.7935 1.66797 13.3333ZM5.0013 16.6666C5.0013 16.2064 5.3744 15.8333 5.83464 15.8333H14.168C14.6282 15.8333 15.0013 16.2064 15.0013 16.6666C15.0013 17.1269 14.6282 17.5 14.168 17.5H5.83464C5.3744 17.5 5.0013 17.1269 5.0013 16.6666Z" fill="#76767F"/>
    <path fill-rule="evenodd" clip-rule="evenodd" d="M4.10931 4.1074C4.43475 3.78197 4.96239 3.78197 5.28782 4.1074L5.87708 4.69666C6.20252 5.0221 6.20252 5.54973 5.87708 5.87517C5.55164 6.20061 5.024 6.20061 4.69857 5.87517L4.10931 5.28591C3.78388 4.96048 3.78388 4.43284 4.10931 4.1074Z" fill="#76767F"/>
    <path fill-rule="evenodd" clip-rule="evenodd" d="M6.66797 10.8333C6.20773 10.8333 5.83464 10.4602 5.83464 9.99996C5.83464 7.69877 7.70012 5.83329 10.0013 5.83329C12.3025 5.83329 14.168 7.69877 14.168 9.99996C14.168 10.4602 13.7949 10.8333 13.3346 10.8333C11.9199 10.8333 8.08272 10.8333 6.66797 10.8333Z" fill="#76767F"/>
</svg>