<svg width="20" height="20" viewBox="0 0 20 20" fill="none" xmlns="http://www.w3.org/2000/svg">
    <path fill-rule="evenodd" clip-rule="evenodd" d="M3.33203 10.8333C2.87179 10.8333 2.4987 10.4602 2.4987 10C2.4987 5.85786 5.85656 2.5 9.9987 2.5C14.1408 2.5 17.4987 5.85786 17.4987 10C17.4987 10.4602 17.1256 10.8333 16.6654 10.8333C15.3656 10.8333 4.63176 10.8333 3.33203 10.8333ZM0.832031 13.3333C0.832031 12.8731 1.20513 12.5 1.66536 12.5H18.332C18.7923 12.5 19.1654 12.8731 19.1654 13.3333C19.1654 13.7936 18.7923 14.1667 18.332 14.1667H1.66536C1.20513 14.1667 0.832031 13.7936 0.832031 13.3333ZM4.9987 16.6667C4.9987 16.2064 5.37179 15.8333 5.83203 15.8333H14.1654C14.6256 15.8333 14.9987 16.2064 14.9987 16.6667C14.9987 17.1269 14.6256 17.5 14.1654 17.5H5.83203C5.37179 17.5 4.9987 17.1269 4.9987 16.6667Z" fill="#76767F"/>
</svg>