<svg width="20" height="20" viewBox="0 0 20 20" fill="none" xmlns="http://www.w3.org/2000/svg">
    <path d="M8.15897 12.3009C10.721 12.3009 12.9637 10.9126 12.9637 7.82749C12.9637 4.74241 10.721 3.35413 8.15897 3.35413C5.5969 3.35413 3.35425 4.74241 3.35425 7.82749C3.35425 8.96064 3.65679 9.86484 4.1666 10.5555C4.35153 10.806 4.31256 11.3899 4.16477 11.664C3.81108 12.32 4.47935 13.0387 5.2057 12.8722C5.74941 12.7476 6.3197 12.5789 6.81879 12.3527C7.00151 12.2698 7.20327 12.2364 7.40262 12.259C7.65027 12.287 7.90302 12.3009 8.15897 12.3009Z" stroke="#A3A3A3" stroke-width="1.375" stroke-linecap="round" stroke-linejoin="round"/>
    <path d="M16.2426 8.19089C16.0029 7.89648 15.5698 7.85216 15.2755 8.09193C14.981 8.33169 14.9367 8.76472 15.1765 9.05916L16.2426 8.19089ZM15.8191 14.2222L16.3722 14.6305L15.8191 14.2222ZM13.1669 16.0194L12.8831 16.6456L13.1669 16.0194ZM14.78 16.5389L14.9336 15.8688L14.78 16.5389ZM12.583 15.9257L12.6603 16.6088L12.583 15.9257ZM9.06652 14.4866C8.75989 14.2626 8.32979 14.3295 8.10582 14.6361C7.88182 14.9427 7.94876 15.3728 8.25536 15.5968L9.06652 14.4866ZM15.8209 15.3307L15.2158 15.6571L15.8209 15.3307ZM17.3189 11.4942C17.3189 10.1452 16.9309 9.03597 16.2426 8.19089L15.1765 9.05916C15.6397 9.62795 15.9439 10.4191 15.9439 11.4942H17.3189ZM16.3722 14.6305C16.9805 13.8065 17.3189 12.7543 17.3189 11.4942H15.9439C15.9439 12.5004 15.6772 13.2567 15.2659 13.8139L16.3722 14.6305ZM12.8831 16.6456C13.4392 16.8977 14.0578 17.0787 14.6264 17.2091L14.9336 15.8688C14.4147 15.7498 13.8928 15.5936 13.4508 15.3932L12.8831 16.6456ZM11.8267 16.6551C12.1074 16.6551 12.386 16.6399 12.6603 16.6088L12.5058 15.2425C12.2848 15.2676 12.0579 15.2801 11.8267 15.2801V16.6551ZM8.25536 15.5968C9.2592 16.3302 10.531 16.6551 11.8267 16.6551V15.2801C10.7469 15.2801 9.78033 15.0081 9.06652 14.4866L8.25536 15.5968ZM13.4508 15.3932C13.1584 15.2608 12.8321 15.2057 12.5058 15.2425L12.6603 16.6088C12.7326 16.6007 12.8099 16.6124 12.8831 16.6456L13.4508 15.3932ZM15.2158 15.6571C15.2332 15.6893 15.2316 15.7058 15.2302 15.7146C15.228 15.7287 15.219 15.7556 15.1911 15.787C15.1312 15.8546 15.0332 15.8916 14.9336 15.8688L14.6264 17.2091C15.2531 17.3527 15.8524 17.1136 16.2198 16.6994C16.5962 16.2751 16.7594 15.6226 16.4261 15.0044L15.2158 15.6571ZM15.2659 13.8139C15.0353 14.1264 15.0017 14.5263 15.0079 14.7842C15.0146 15.0619 15.0736 15.3934 15.2158 15.6571L16.4261 15.0044C16.4279 15.008 16.416 14.9846 16.4034 14.9283C16.3919 14.876 16.384 14.8138 16.3825 14.751C16.381 14.6872 16.3863 14.6372 16.3931 14.6055C16.401 14.5683 16.404 14.5875 16.3722 14.6305L15.2659 13.8139Z" fill="#A3A3A3"/>
</svg>