<svg width="20" height="20" viewBox="0 0 20 20" fill="none" xmlns="http://www.w3.org/2000/svg">
    <path d="M16.6459 7.47925V7.02091C16.6459 6.53468 16.4528 6.06837 16.1089 5.72455C15.7651 5.38074 15.2988 5.18758 14.8126 5.18758H5.18758C4.70135 5.18758 4.23504 5.38074 3.89122 5.72455C3.5474 6.06837 3.35425 6.53468 3.35425 7.02091V14.8126C3.35425 15.2988 3.5474 15.7651 3.89122 16.1089C4.23504 16.4528 4.70135 16.6459 5.18758 16.6459H7.47925M6.33341 3.35425V6.56258M13.6667 3.35425V6.56258" stroke="#7077FF" stroke-width="1.375" stroke-linecap="round" stroke-linejoin="round"/>
    <path d="M12.7501 16.6459C11.7168 16.6459 10.7259 16.2355 9.99531 15.5049C9.2647 14.7742 8.85425 13.7833 8.85425 12.7501C8.85425 11.7168 9.2647 10.7259 9.99531 9.99531C10.7259 9.2647 11.7168 8.85425 12.7501 8.85425C13.7833 8.85425 14.7742 9.2647 15.5049 9.99531C16.2355 10.7259 16.6459 11.7168 16.6459 12.7501C16.6459 13.7833 16.2355 14.7742 15.5049 15.5049C14.7742 16.2355 13.7833 16.6459 12.7501 16.6459Z" fill="#7077FF" stroke="#7077FF" stroke-width="1.375" stroke-linecap="round" stroke-linejoin="round"/>
    <path d="M12.75 11.6042V12.7501L13.8958 13.8959" stroke="white" stroke-width="1.375" stroke-linecap="round" stroke-linejoin="round"/>
</svg>