<svg width="20" height="20" viewBox="0 0 20 20" fill="none" xmlns="http://www.w3.org/2000/svg">
    <path d="M7.02075 7.47925V4.95841M7.02075 4.95841C7.02075 5.84437 9.17538 6.56258 11.8333 6.56258C14.4911 6.56258 16.6458 5.84437 16.6458 4.95841M7.02075 4.95841C7.02075 4.07246 9.17538 3.35425 11.8333 3.35425C14.4911 3.35425 16.6458 4.07246 16.6458 4.95841M16.6458 4.95841V8.62508C16.6458 9.02145 16.2146 9.38417 15.4999 9.66412" stroke="#A3A3A3" stroke-width="1.375" stroke-linecap="round" stroke-linejoin="round"/>
    <path d="M12.9792 11.3749V15.0416C12.9792 15.9275 10.8246 16.6458 8.16675 16.6458C5.50888 16.6458 3.35425 15.9275 3.35425 15.0416V11.3749M12.9792 11.3749C12.9792 12.2609 10.8246 12.9791 8.16675 12.9791C5.50888 12.9791 3.35425 12.2609 3.35425 11.3749M12.9792 11.3749C12.9792 10.489 10.8246 9.77075 8.16675 9.77075C5.50888 9.77075 3.35425 10.489 3.35425 11.3749" stroke="#A3A3A3" stroke-width="1.375" stroke-linecap="round" stroke-linejoin="round"/>
</svg>