<svg width="24" height="24" viewBox="0 0 24 24" fill="none" xmlns="http://www.w3.org/2000/svg">
    <g filter="url(#filter0_i_2649_17976)">
        <path d="M0 12C0 5.37258 5.37258 0 12 0V0C18.6274 0 24 5.37258 24 12V12C24 18.6274 18.6274 24 12 24V24C5.37258 24 0 18.6274 0 12V12Z" fill="#EFEFF0"/>
        <path d="M12.8591 18.1001C12.5971 18.1001 12.408 18.0065 12.292 17.8193C12.1759 17.6322 12.0767 17.3982 11.9944 17.1174L11.1016 14.1526C11.0492 13.9654 11.0304 13.8157 11.0454 13.7034C11.0604 13.5873 11.1222 13.4713 11.2307 13.3552L16.9639 7.17285C16.9976 7.13916 17.0144 7.10173 17.0144 7.06055C17.0144 7.01937 16.9994 6.98568 16.9695 6.95947C16.9395 6.93327 16.904 6.92017 16.8628 6.92017C16.8254 6.91642 16.7898 6.9314 16.7561 6.96509L10.5962 12.7207C10.4727 12.833 10.3529 12.8966 10.2368 12.9116C10.1208 12.9229 9.9729 12.9004 9.79321 12.8442L6.76099 11.9233C6.49146 11.841 6.26872 11.7437 6.09277 11.6313C5.91683 11.5153 5.82886 11.3281 5.82886 11.0698C5.82886 10.8677 5.90934 10.6936 6.07031 10.5476C6.23128 10.4016 6.42969 10.2837 6.66553 10.1938L16.3237 6.49341C16.4548 6.44474 16.5764 6.40731 16.6887 6.3811C16.8048 6.35116 16.9096 6.33618 17.0032 6.33618C17.1866 6.33618 17.3307 6.38859 17.4355 6.49341C17.5404 6.59823 17.5928 6.74235 17.5928 6.92578C17.5928 7.02311 17.5778 7.12793 17.5479 7.24023C17.5216 7.35254 17.4842 7.4742 17.4355 7.60522L13.7576 17.2129C13.6528 17.4824 13.5273 17.6977 13.3813 17.8586C13.2354 18.0196 13.0613 18.1001 12.8591 18.1001Z" fill="#16A34A"/>
    </g>
    <defs>
        <filter id="filter0_i_2649_17976" x="0" y="0" width="24" height="24" filterUnits="userSpaceOnUse" color-interpolation-filters="sRGB">
            <feFlood flood-opacity="0" result="BackgroundImageFix"/>
            <feBlend mode="normal" in="SourceGraphic" in2="BackgroundImageFix" result="shape"/>
            <feColorMatrix in="SourceAlpha" type="matrix" values="0 0 0 0 0 0 0 0 0 0 0 0 0 0 0 0 0 0 127 0" result="hardAlpha"/>
            <feOffset dy="-1"/>
            <feComposite in2="hardAlpha" operator="arithmetic" k2="-1" k3="1"/>
            <feColorMatrix type="matrix" values="0 0 0 0 0.152941 0 0 0 0 0.152941 0 0 0 0 0.164706 0 0 0 0.06 0"/>
            <feBlend mode="normal" in2="shape" result="effect1_innerShadow_2649_17976"/>
        </filter>
    </defs>
</svg>