<svg width="24" height="24" viewBox="0 0 24 24" fill="none" xmlns="http://www.w3.org/2000/svg">
    <g filter="url(#filter0_i_2418_10340)">
        <path d="M0 12C0 5.37258 5.37258 0 12 0V0C18.6274 0 24 5.37258 24 12V12C24 18.6274 18.6274 24 12 24V24C5.37258 24 0 18.6274 0 12V12Z" fill="#EFEFF0"/>
        <path d="M7.1665 7.83325V16.8333" stroke="#EF4444" stroke-linecap="round" stroke-linejoin="round"/>
        <path d="M7.1665 14.1664V7.83305C7.1665 7.83305 7.99984 7.16638 9.99984 7.16638C11.9998 7.16638 12.9998 8.16638 14.6665 8.16638C16.3332 8.16638 16.8332 7.83305 16.8332 7.83305L14.4998 10.9997L16.8332 14.1664C16.8332 14.1664 16.3332 14.833 14.6665 14.833C12.9998 14.833 11.6665 13.4997 9.99984 13.4997C8.33317 13.4997 7.1665 14.1664 7.1665 14.1664Z" fill="#EF4444" stroke="#EF4444" stroke-linecap="round" stroke-linejoin="round"/>
    </g>
    <defs>
        <filter id="filter0_i_2418_10340" x="0" y="0" width="24" height="24" filterUnits="userSpaceOnUse" color-interpolation-filters="sRGB">
            <feFlood flood-opacity="0" result="BackgroundImageFix"/>
            <feBlend mode="normal" in="SourceGraphic" in2="BackgroundImageFix" result="shape"/>
            <feColorMatrix in="SourceAlpha" type="matrix" values="0 0 0 0 0 0 0 0 0 0 0 0 0 0 0 0 0 0 127 0" result="hardAlpha"/>
            <feOffset dy="-1"/>
            <feComposite in2="hardAlpha" operator="arithmetic" k2="-1" k3="1"/>
            <feColorMatrix type="matrix" values="0 0 0 0 0.152941 0 0 0 0 0.152941 0 0 0 0 0.164706 0 0 0 0.06 0"/>
            <feBlend mode="normal" in2="shape" result="effect1_innerShadow_2418_10340"/>
        </filter>
    </defs>
</svg>