<svg width="20" height="20" viewBox="0 0 20 20" fill="none" xmlns="http://www.w3.org/2000/svg">
    <path fill-rule="evenodd" clip-rule="evenodd" d="M10 1.6665C7.69882 1.6665 5.83334 3.53198 5.83334 5.83317V7.49984C4.45263 7.49984 3.33334 8.61913 3.33334 9.99984V15.8332C3.33334 17.2139 4.45263 18.3332 5.83334 18.3332H14.1667C15.5474 18.3332 16.6667 17.2139 16.6667 15.8332V9.99984C16.6667 8.61913 15.5474 7.49984 14.1667 7.49984H7.50001V5.83317C7.50001 4.45246 8.6193 3.33317 10 3.33317C11.1638 3.33317 12.1437 4.12911 12.4213 5.20755C12.536 5.65326 12.9903 5.92159 13.436 5.80687C13.8818 5.69215 14.1501 5.23783 14.0354 4.79212C13.5729 2.99519 11.9427 1.6665 10 1.6665ZM10 10.8332C10.4602 10.8332 10.8333 11.2063 10.8333 11.6665V14.1665C10.8333 14.6267 10.4602 14.9998 10 14.9998C9.53977 14.9998 9.16668 14.6267 9.16668 14.1665V11.6665C9.16668 11.2063 9.53977 10.8332 10 10.8332Z" fill="#A1A1AA"/>
</svg>