<svg width="20" height="20" viewBox="0 0 20 20" fill="none" xmlns="http://www.w3.org/2000/svg">
<path d="M10.1644 16.0239H10.2344H10.3044V16.027C10.4838 16.0433 10.6527 16.1219 10.7811 16.2503C10.926 16.3953 11.0075 16.5919 11.0075 16.797C11.0075 17.002 10.926 17.1987 10.7811 17.3437C10.6527 17.4721 10.4838 17.5506 10.3044 17.5669V17.5701H10.2344H10.1644H10.0001C9.99329 17.5701 9.98648 17.5701 9.97967 17.5701H9.93V17.5699C8.26648 17.5567 6.65392 16.9938 5.34355 15.9689L5.34343 15.969L5.31098 15.9433L10.1644 16.0239ZM10.1644 16.0239H10.07V16.0237L10 16.0239H9.99989H9.98051M10.1644 16.0239H9.98051M5.26627 15.9077C5.27369 15.9136 5.28111 15.9196 5.28855 15.9255L5.26627 15.9077ZM5.26627 15.9077L5.23387 15.8819L5.23399 15.8817M5.26627 15.9077L5.23399 15.8817M5.23399 15.8817C4.36708 15.1801 3.66505 14.2951 3.18032 13.29C2.69561 12.2849 2.43958 11.1853 2.43026 10.0701M5.23399 15.8817L2.43026 10.0701M9.98051 16.0239C8.94178 16.0222 7.92682 15.7508 7.03228 15.2434C7.33418 15.0262 7.65983 14.8423 8.00366 14.6956C8.63059 14.4281 9.30498 14.2897 9.98651 14.2888C9.99097 14.2888 9.99544 14.2888 9.99991 14.2888H10L10.07 14.2889V14.2888H10.1644H10.2344H10.3044V14.2857C10.4838 14.2694 10.6527 14.1908 10.7811 14.0624C10.926 13.9174 11.0075 13.7208 11.0075 13.5157C11.0075 13.3107 10.926 13.114 10.7811 12.969C10.6527 12.8406 10.4838 12.7621 10.3044 12.7458V12.7426H10.2344H10.1644H10.0001C9.99487 12.7426 9.98966 12.7426 9.98445 12.7426H9.93V12.7429C9.05912 12.7511 8.19819 12.9312 7.39672 13.2732C6.80295 13.5265 6.25072 13.8649 5.75693 14.2766C5.27215 13.7963 4.8715 13.2359 4.57356 12.6184C4.18128 11.8054 3.97715 10.9145 3.97625 10.0119C3.97625 10.008 3.97625 10.004 3.97625 10.0001L3.97625 10.0001C3.97625 9.9962 3.97626 9.99234 3.97626 9.98848C3.97932 8.39505 4.61363 6.86754 5.74057 5.74059C6.87024 4.61091 8.4024 3.97626 10 3.97626C11.5976 3.97626 13.1298 4.61091 14.2594 5.74059C15.3891 6.87027 16.0238 8.40245 16.0238 10.0001V10.0701V10.1644V10.2344V10.3044H16.0269C16.0432 10.4838 16.1218 10.6527 16.2502 10.7811C16.3952 10.9261 16.5918 11.0076 16.7969 11.0076C17.0019 11.0076 17.1986 10.9261 17.3436 10.7811C17.472 10.6527 17.5505 10.4838 17.5668 10.3044H17.57V10.2344V10.1644V10.0701V10.0001V9.93006H17.5697C17.5514 7.94765 16.7559 6.05037 15.3528 4.64722C13.9497 3.24407 12.0524 2.44863 10.07 2.43032V2.43H10H9.93V2.43032C7.9476 2.44863 6.05035 3.24407 4.6472 4.64722C3.24406 6.05037 2.44863 7.94765 2.43033 9.93006H2.43007L2.43002 9.98618C2.43001 9.99078 2.43 9.99539 2.43 10M9.98051 16.0239L2.43 10M2.43 10C2.43 10 2.43 10 2.43 10.0001V10.0138M2.43 10C2.43 10.0046 2.43 10.0092 2.43 10.0138M2.43 10.0138V10.0701H2.43026M2.43 10.0138L2.43026 10.0701M16.7969 13.9145H16.7269H15.4606V12.6482V12.5782V12.5082H15.4575C15.4412 12.3288 15.3626 12.1599 15.2342 12.0315C15.0892 11.8865 14.8925 11.8051 14.6875 11.8051C14.4825 11.8051 14.2858 11.8865 14.1408 12.0315C14.0124 12.1599 13.9339 12.3288 13.9175 12.5082H13.9144V12.5782V12.6482V13.9145H12.6481H12.5781H12.5081V13.9176C12.3287 13.9339 12.1598 14.0125 12.0314 14.1409C11.8865 14.2859 11.805 14.4825 11.805 14.6876C11.805 14.8926 11.8865 15.0893 12.0314 15.2343C12.1598 15.3627 12.3287 15.4413 12.5081 15.4576V15.4607H12.5781H12.6481H13.9144V16.727V16.797V16.867H13.9175C13.9339 17.0464 14.0124 17.2153 14.1408 17.3437C14.2858 17.4887 14.4825 17.5701 14.6875 17.5701C14.8925 17.5701 15.0892 17.4887 15.2342 17.3437C15.3626 17.2153 15.4412 17.0464 15.4575 16.867H15.4606V16.797V16.727V15.4607H16.7269H16.7969H16.8669V15.4576C17.0463 15.4413 17.2152 15.3627 17.3436 15.2343C17.4885 15.0893 17.57 14.8926 17.57 14.6876C17.57 14.4825 17.4885 14.2859 17.3436 14.1409C17.2152 14.0125 17.0463 13.9339 16.8669 13.9176V13.9145H16.7969ZM11.3363 9.06255C11.3363 9.41695 11.1955 9.75683 10.9449 10.0074C10.6943 10.258 10.3544 10.3988 10 10.3988C9.64561 10.3988 9.30573 10.258 9.05513 10.0074C8.80453 9.75683 8.66375 9.41695 8.66375 9.06255C8.66375 8.70815 8.80453 8.36827 9.05513 8.11767C9.30573 7.86707 9.64561 7.72629 10 7.72629C10.3544 7.72629 10.6943 7.86707 10.9449 8.11767C11.1955 8.36827 11.3363 8.70815 11.3363 9.06255ZM9.93 11.9442V11.9451H10H10.07V11.9442C10.8091 11.9263 11.5142 11.6249 12.0382 11.1008C12.5623 10.5767 12.8637 9.87168 12.8817 9.13255H12.8825V9.06255V8.99255H12.8817C12.8637 8.25342 12.5623 7.54836 12.0382 7.0243C11.5142 6.50024 10.8091 6.19881 10.07 6.18088V6.18003H10H9.93V6.18088C9.19088 6.19881 8.48582 6.50024 7.96177 7.0243C7.43771 7.54836 7.13629 8.25342 7.11835 8.99255H7.1175V9.06255V9.13255H7.11835C7.13629 9.87168 7.43771 10.5767 7.96177 11.1008C8.48582 11.6249 9.19088 11.9263 9.93 11.9442Z" fill="#27272A" stroke="#27272A" stroke-width="0.14"/>
</svg>
