<svg width="20" height="20" viewBox="0 0 20 20" fill="none" xmlns="http://www.w3.org/2000/svg">
    <path d="M18.125 10C18.125 14.4874 14.4874 18.125 10 18.125V20C15.5229 20 20 15.5229 20 10H18.125ZM10 18.125C5.51269 18.125 1.875 14.4874 1.875 10H0C0 15.5229 4.47715 20 10 20V18.125ZM1.875 10C1.875 5.51269 5.51269 1.875 10 1.875V0C4.47715 0 0 4.47715 0 10H1.875ZM10 1.875C14.4874 1.875 18.125 5.51269 18.125 10H20C20 4.47715 15.5229 0 10 0V1.875Z" fill="#A3A3A3"/>
    <path d="M11.875 7.5C11.875 8.5355 11.0355 9.375 10 9.375V11.25C12.0711 11.25 13.75 9.57113 13.75 7.5H11.875ZM10 9.375C8.9645 9.375 8.125 8.5355 8.125 7.5H6.25C6.25 9.57113 7.92887 11.25 10 11.25V9.375ZM8.125 7.5C8.125 6.46446 8.9645 5.625 10 5.625V3.75C7.92887 3.75 6.25 5.42894 6.25 7.5H8.125ZM10 5.625C11.0355 5.625 11.875 6.46446 11.875 7.5H13.75C13.75 5.42894 12.0711 3.75 10 3.75V5.625Z" fill="#A3A3A3"/>
    <path d="M3.27681 15.6496C2.94523 16.0472 2.99881 16.6385 3.39647 16.97C3.79415 17.3016 4.38531 17.248 4.71688 16.8504L3.27681 15.6496ZM15.2832 16.8504C15.6147 17.248 16.206 17.3016 16.6036 16.97C17.0012 16.6385 17.0548 16.0472 16.7232 15.6496L15.2832 16.8504ZM4.71688 16.8504C5.97948 15.3361 7.87708 14.375 10.0001 14.375V12.5C7.29741 12.5 4.88038 13.7264 3.27681 15.6496L4.71688 16.8504ZM10.0001 14.375C12.123 14.375 14.0206 15.3361 15.2832 16.8504L16.7232 15.6496C15.1197 13.7264 12.7027 12.5 10.0001 12.5V14.375Z" fill="#A3A3A3"/>
    <circle cx="10" cy="7.5" r="2.5" fill="#A3A3A3"/>
    <path d="M14.375 14.375L10 13.75L5 15L3.75 16.25L5 18.125L10 19.375L13.75 18.125L16.25 16.25L14.375 14.375Z" fill="#A3A3A3"/>
</svg>