<svg width="20" height="20" viewBox="0 0 20 20" fill="none" xmlns="http://www.w3.org/2000/svg">
<path d="M10.2292 5.87496C10.2292 7.26717 9.10057 8.39579 7.70833 8.39579C6.31612 8.39579 5.1875 7.26717 5.1875 5.87496C5.1875 4.48274 6.31612 3.35413 7.70833 3.35413C9.10057 3.35413 10.2292 4.48274 10.2292 5.87496Z" stroke="#27272A" stroke-width="1.5" stroke-linecap="round" stroke-linejoin="round"/>
<path d="M12.5208 8.39579C13.913 8.39579 14.8124 7.26717 14.8124 5.87496C14.8124 4.48274 13.913 3.35413 12.5208 3.35413" stroke="#27272A" stroke-width="1.5" stroke-linecap="round" stroke-linejoin="round"/>
<path d="M9.31258 16.6458H4.21171C3.6858 16.6458 3.27124 16.2184 3.36846 15.7104C3.64741 14.2526 4.58077 11.6041 7.68061 11.6041C8.61316 11.6041 9.31258 12.0625 9.31258 12.0625" stroke="#27272A" stroke-width="1.5" stroke-linecap="round" stroke-linejoin="round"/>
<path d="M12.5208 15.2709L13.6666 16.6459L16.6458 12.5209" stroke="#27272A" stroke-width="1.5" stroke-linecap="round" stroke-linejoin="round"/>
</svg>
