<svg width="20" height="20" viewBox="0 0 20 20" fill="none" xmlns="http://www.w3.org/2000/svg">
    <path d="M16.6459 6.5625V14.8125C16.6459 15.8251 15.8251 16.6458 14.8126 16.6458H5.18758C4.17506 16.6458 3.35425 15.8251 3.35425 14.8125V5.1875" stroke="#A3A3A3" stroke-width="1.375" stroke-linecap="round" stroke-linejoin="round"/>
    <path d="M14.1249 10.9166C14.1249 11.1697 13.9197 11.3749 13.6666 11.3749C13.4135 11.3749 13.2083 11.1697 13.2083 10.9166C13.2083 10.6635 13.4135 10.4583 13.6666 10.4583C13.9197 10.4583 14.1249 10.6635 14.1249 10.9166Z" stroke="#A3A3A3" stroke-width="0.916667" stroke-linecap="round" stroke-linejoin="round"/>
    <path d="M14.8126 6.56246H16.6459M14.8126 6.56246H4.95841C4.07246 6.56246 3.35425 5.84425 3.35425 4.95829C3.35425 4.07233 4.07246 3.35413 4.95841 3.35413H12.9792C13.9918 3.35413 14.8126 4.17494 14.8126 5.18746V6.56246Z" stroke="#A3A3A3" stroke-width="1.375" stroke-linecap="round" stroke-linejoin="round"/>
</svg>