<svg width="20" height="20" viewBox="0 0 20 20" fill="none" xmlns="http://www.w3.org/2000/svg">
<path d="M2.5 6.66666V5.83332C2.5 4.91285 3.24619 4.16666 4.16667 4.16666H15.8333C16.7538 4.16666 17.5 4.91285 17.5 5.83332V6.66666M2.5 6.66666H17.5M2.5 6.66666V9.16666M17.5 6.66666V9.16666M17.5 9.16666V14.1667C17.5 15.0871 16.7538 15.8333 15.8333 15.8333H4.16667C3.24619 15.8333 2.5 15.0871 2.5 14.1667V9.16666M17.5 9.16666H12.5C12.5 10.0871 11.7538 10.8333 10.8333 10.8333H9.16667C8.24619 10.8333 7.5 10.0871 7.5 9.16666H2.5" stroke="#A1A1AA" stroke-width="1.66667" stroke-linejoin="round"/>
</svg>
