<svg width="20" height="20" viewBox="0 0 20 20" fill="none" xmlns="http://www.w3.org/2000/svg">
<g clip-path="url(#clip0_1220_9063)">
<path d="M3.33325 5.41671V14.1667C3.33325 15.5474 4.45254 16.6667 5.83325 16.6667H14.9999C15.9204 16.6667 16.6666 15.9205 16.6666 15V9.16671C16.6666 8.24623 15.9204 7.50004 14.9999 7.50004H13.3333M3.33325 5.41671C3.33325 6.5673 4.26599 7.50004 5.41659 7.50004H13.3333M3.33325 5.41671C3.33325 4.26611 4.26599 3.33337 5.41659 3.33337H12.1568C12.8065 3.33337 13.3333 3.8601 13.3333 4.50984V7.50004" stroke="#A1A1AA" stroke-width="1.4" stroke-linecap="square" stroke-linejoin="round"/>
<path d="M12.9167 12.9C13.3677 12.9 13.7333 12.5343 13.7333 12.0833C13.7333 11.6323 13.3677 11.2666 12.9167 11.2666C12.4656 11.2666 12.1 11.6323 12.1 12.0833C12.1 12.5343 12.4656 12.9 12.9167 12.9Z" fill="#A1A1AA" stroke="#A1A1AA" stroke-width="0.8"/>
</g>
<defs>
<clipPath id="clip0_1220_9063">
<rect width="20" height="20" fill="white"/>
</clipPath>
</defs>
</svg>
