<svg width="20" height="20" viewBox="0 0 20 20" fill="none" xmlns="http://www.w3.org/2000/svg">
    <path fill-rule="evenodd" clip-rule="evenodd" d="M1.66602 5.83337C1.66602 4.45266 2.7853 3.33337 4.16602 3.33337H15.8327C17.2134 3.33337 18.3327 4.45266 18.3327 5.83337V6.66671C18.3327 7.12694 17.9596 7.50004 17.4993 7.50004C17.0391 7.50004 16.666 7.12694 16.666 6.66671V5.83337C16.666 5.37314 16.2929 5.00004 15.8327 5.00004H4.16602C3.70578 5.00004 3.33268 5.37314 3.33268 5.83337V14.1667C3.33268 14.6269 3.70578 15 4.16602 15H8.33268C8.79292 15 9.16602 15.3731 9.16602 15.8334C9.16602 16.2936 8.79292 16.6667 8.33268 16.6667H4.16602C2.7853 16.6667 1.66602 15.5474 1.66602 14.1667V5.83337ZM14.9993 9.16671C15.4596 9.16671 15.8327 9.5398 15.8327 10C15.8327 11.0557 16.0674 11.6257 16.3872 11.9455C16.707 12.2653 17.277 12.5 18.3327 12.5C18.7929 12.5 19.166 12.8731 19.166 13.3334C19.166 13.7936 18.7929 14.1667 18.3327 14.1667C17.277 14.1667 16.707 14.4014 16.3872 14.7212C16.0674 15.0411 15.8327 15.611 15.8327 16.6667C15.8327 17.1269 15.4596 17.5 14.9993 17.5C14.5391 17.5 14.166 17.1269 14.166 16.6667C14.166 15.611 13.9313 15.0411 13.6115 14.7212C13.2917 14.4014 12.7217 14.1667 11.666 14.1667C11.2058 14.1667 10.8327 13.7936 10.8327 13.3334C10.8327 12.8731 11.2058 12.5 11.666 12.5C12.7217 12.5 13.2917 12.2653 13.6115 11.9455C13.9313 11.6257 14.166 11.0557 14.166 10C14.166 9.5398 14.5391 9.16671 14.9993 9.16671ZM14.9993 12.8919C14.9341 12.9723 14.8643 13.0497 14.79 13.124C14.7157 13.1984 14.6382 13.2681 14.5579 13.3334C14.6382 13.3987 14.7157 13.4684 14.79 13.5427C14.8643 13.6171 14.9341 13.6945 14.9993 13.7748C15.0646 13.6945 15.1344 13.6171 15.2087 13.5427C15.283 13.4684 15.3605 13.3987 15.4408 13.3334C15.3605 13.2681 15.283 13.1984 15.2087 13.124C15.1344 13.0497 15.0646 12.9723 14.9993 12.8919Z" fill="#A1A1AA"/>
    <path d="M5.83268 6.66671C5.83268 7.12694 5.45959 7.50004 4.99935 7.50004C4.53911 7.50004 4.16602 7.12694 4.16602 6.66671C4.16602 6.20647 4.53911 5.83337 4.99935 5.83337C5.45959 5.83337 5.83268 6.20647 5.83268 6.66671Z" fill="#A1A1AA"/>
    <path d="M8.33268 6.66671C8.33268 7.12694 7.95959 7.50004 7.49935 7.50004C7.03911 7.50004 6.66602 7.12694 6.66602 6.66671C6.66602 6.20647 7.03911 5.83337 7.49935 5.83337C7.95959 5.83337 8.33268 6.20647 8.33268 6.66671Z" fill="#A1A1AA"/>
    <path d="M9.99935 7.50004C10.4596 7.50004 10.8327 7.12694 10.8327 6.66671C10.8327 6.20647 10.4596 5.83337 9.99935 5.83337C9.53911 5.83337 9.16602 6.20647 9.16602 6.66671C9.16602 7.12694 9.53911 7.50004 9.99935 7.50004Z" fill="#A1A1AA"/>
</svg>