<svg width="20" height="20" viewBox="0 0 20 20" fill="none" xmlns="http://www.w3.org/2000/svg">
    <path d="M5.92725 8.80208C5.92725 7.74354 6.78537 6.88542 7.84391 6.88542H12.1564C13.215 6.88542 14.0731 7.74354 14.0731 8.80208V15.0313C14.0731 16.0898 13.215 16.9479 12.1564 16.9479H7.84391C6.78537 16.9479 5.92725 16.0898 5.92725 15.0313V8.80208Z" stroke="#A1A1AA" stroke-width="1.74591" stroke-linecap="round" stroke-linejoin="round"/>
    <path d="M16.9481 8.32292V4.96875C16.9481 3.9102 16.09 3.05208 15.0314 3.05208H4.96891C3.91037 3.05208 3.05225 3.9102 3.05225 4.96875V8.32292" stroke="#A1A1AA" stroke-width="1.74591" stroke-linecap="round" stroke-linejoin="round"/>
    <path d="M11.1981 11.9167C11.1981 12.5783 10.6618 13.1146 10.0002 13.1146C9.33853 13.1146 8.80225 12.5783 8.80225 11.9167C8.80225 11.255 9.33853 10.7188 10.0002 10.7188C10.6618 10.7188 11.1981 11.255 11.1981 11.9167Z" fill="#A1A1AA" stroke="#A1A1AA" stroke-width="1.04545" stroke-linecap="round" stroke-linejoin="round"/>
</svg>