<svg width="25" height="24" viewBox="0 0 25 24" fill="none" xmlns="http://www.w3.org/2000/svg">
    <path d="M8.25 10.75C8.25 9.64543 9.14543 8.75 10.25 8.75H14.75C15.8546 8.75 16.75 9.64543 16.75 10.75V17.25C16.75 18.3546 15.8546 19.25 14.75 19.25H10.25C9.14543 19.25 8.25 18.3546 8.25 17.25V10.75Z" fill="#27272A" stroke="#27272A" stroke-width="1.87999" stroke-linecap="round" stroke-linejoin="round"/>
    <path d="M19.75 10.25V6.75C19.75 5.64543 18.8546 4.75 17.75 4.75H7.25C6.14543 4.75 5.25 5.64543 5.25 6.75V10.25" stroke="#27272A" stroke-width="1.87999" stroke-linecap="round" stroke-linejoin="round"/>
    <path d="M13.75 14C13.75 14.6904 13.1904 15.25 12.5 15.25C11.8096 15.25 11.25 14.6904 11.25 14C11.25 13.3096 11.8096 12.75 12.5 12.75C13.1904 12.75 13.75 13.3096 13.75 14Z" fill="#EFEFF0" stroke="#EFEFF0" stroke-width="1.66999" stroke-linecap="round" stroke-linejoin="round"/>
</svg>