<svg width="20" height="20" viewBox="0 0 20 20" fill="none" xmlns="http://www.w3.org/2000/svg">
    <path d="M5.927 8.80216C5.927 7.74362 6.78512 6.8855 7.84367 6.8855H12.1562C13.2147 6.8855 14.0728 7.74362 14.0728 8.80216V15.0313C14.0728 16.0899 13.2147 16.948 12.1562 16.948H7.84367C6.78512 16.948 5.927 16.0899 5.927 15.0313V8.80216Z" fill="#7077FF" stroke="#7077FF" stroke-width="1.74591" stroke-linecap="round" stroke-linejoin="round"/>
    <path d="M16.9478 8.32284V4.96867C16.9478 3.91012 16.0897 3.052 15.0312 3.052H4.96867C3.91012 3.052 3.052 3.91012 3.052 4.96867V8.32284" stroke="#7077FF" stroke-width="1.74591" stroke-linecap="round" stroke-linejoin="round"/>
    <path d="M11.1978 11.9167C11.1978 12.5783 10.6616 13.1146 9.99992 13.1146C9.33829 13.1146 8.802 12.5783 8.802 11.9167C8.802 11.255 9.33829 10.7188 9.99992 10.7188C10.6616 10.7188 11.1978 11.255 11.1978 11.9167Z" fill="white" stroke="white" stroke-width="1.04545" stroke-linecap="round" stroke-linejoin="round"/>
</svg>