<svg width="32" height="32" viewBox="0 0 32 32" fill="none" xmlns="http://www.w3.org/2000/svg">
<path d="M25.263 2.52575C25.0173 2.03439 24.3161 2.03439 24.0704 2.52575L22.766 5.13442C22.7015 5.26344 22.5969 5.36805 22.4679 5.43256L19.8592 6.7369C19.3679 6.98258 19.3679 7.68378 19.8592 7.92947L22.4679 9.2338C22.5969 9.29831 22.7015 9.40293 22.766 9.53194L24.0704 12.1406C24.3161 12.632 25.0173 12.632 25.263 12.1406L26.5673 9.53194C26.6318 9.40293 26.7364 9.29831 26.8654 9.2338L29.4741 7.92947C29.9655 7.68378 29.9655 6.98258 29.4741 6.7369L26.8654 5.43256C26.7364 5.36805 26.6318 5.26344 26.5673 5.13442L25.263 2.52575Z" fill="#94949E"/>
<path fill-rule="evenodd" clip-rule="evenodd" d="M6.66667 7.99985C6.66667 7.26347 7.26362 6.66651 8 6.66651H14.6667C15.403 6.66651 16 6.06956 16 5.33318C16 4.5968 15.403 3.99985 14.6667 3.99985H8C5.79086 3.99985 4 5.79071 4 7.99985V23.9998C4 26.209 5.79086 27.9998 8 27.9998H24C26.2091 27.9998 28 26.209 28 23.9998V17.3332C28 16.5968 27.403 15.9998 26.6667 15.9998C25.9303 15.9998 25.3333 16.5968 25.3333 17.3332V23.9998C25.3333 24.7362 24.7364 25.3332 24 25.3332H22.5333C21.9156 22.2902 19.2253 19.9998 16 19.9998C12.7747 19.9998 10.0844 22.2902 9.46669 25.3332H8C7.26362 25.3332 6.66667 24.7362 6.66667 23.9998V7.99985Z" fill="#94949E"/>
<path d="M16 9.99967C13.7909 9.99967 12 11.7905 12 13.9997C12 16.2088 13.7909 17.9997 16 17.9997C18.2091 17.9997 20 16.2088 20 13.9997C20 11.7905 18.2091 9.99967 16 9.99967Z" fill="#94949E"/>
</svg>
