<svg width="33" height="32" viewBox="0 0 33 32" fill="none" xmlns="http://www.w3.org/2000/svg">
<path d="M10.5 8.66675C10.5 5.35304 13.1863 2.66675 16.5 2.66675C19.8137 2.66675 22.5 5.35304 22.5 8.66675C22.5 11.9805 19.8137 14.6667 16.5 14.6667C13.1863 14.6667 10.5 11.9805 10.5 8.66675Z" fill="#94949E"/>
<path d="M16.4994 16.0001C11.3902 16.0001 7.47988 19.0617 5.89213 23.3548C5.43822 24.5821 5.74899 25.7918 6.47053 26.6517C7.17369 27.4897 8.25916 28.0001 9.42849 28.0001H17.9641C17.128 26.8044 16.4993 25.3223 16.4993 23.6667C16.4993 20.9596 18.2028 17.747 21.5135 17.1121C20.0338 16.3995 18.3448 16.0001 16.4994 16.0001Z" fill="#94949E"/>
<path fill-rule="evenodd" clip-rule="evenodd" d="M22.7222 19.6667C21.8089 19.6667 20.8978 20.0337 20.2217 20.7548C19.5393 21.4827 19.1667 22.4924 19.1667 23.6667C19.1667 25.5709 20.497 27.0254 21.5258 27.8753C22.0761 28.3299 22.635 28.6906 23.0869 28.9417C23.3125 29.067 23.5245 29.1723 23.7072 29.2506C23.7972 29.2892 23.8953 29.3277 23.9936 29.3592L23.9976 29.3605C24.0567 29.3795 24.2595 29.4445 24.5 29.4445C24.7405 29.4445 24.9433 29.3795 25.0024 29.3605L25.0064 29.3592C25.1047 29.3277 25.2028 29.2892 25.2928 29.2506C25.4755 29.1723 25.6875 29.067 25.9132 28.9417C26.365 28.6906 26.9239 28.3299 27.4742 27.8753C28.503 27.0254 29.8333 25.5709 29.8333 23.6667C29.8333 22.4924 29.4607 21.4827 28.7783 20.7548C28.1022 20.0337 27.1911 19.6667 26.2778 19.6667C25.5458 19.6667 24.9428 19.8614 24.5 20.0771C24.0572 19.8614 23.4542 19.6667 22.7222 19.6667ZM21.8333 23.6667C21.8333 23.0633 22.0162 22.7397 22.1672 22.5787C22.3245 22.4109 22.5244 22.3334 22.7222 22.3334C23.0051 22.3334 23.2309 22.4175 23.3893 22.5039C23.4683 22.547 23.5253 22.588 23.5567 22.6126C23.5672 22.6208 23.5743 22.6268 23.578 22.6299C24.0931 23.1235 24.9069 23.1235 25.422 22.6299C25.4257 22.6268 25.4328 22.6208 25.4433 22.6126C25.4747 22.588 25.5317 22.547 25.6107 22.5039C25.7691 22.4175 25.9949 22.3334 26.2778 22.3334C26.4756 22.3334 26.6755 22.4109 26.8328 22.5787C26.9838 22.7397 27.1667 23.0633 27.1667 23.6667C27.1667 24.3182 26.6637 25.0859 25.7758 25.8194C25.3678 26.1564 24.9475 26.4276 24.6181 26.6106C24.5764 26.6338 24.5369 26.6551 24.5 26.6745C24.463 26.6551 24.4236 26.6338 24.3819 26.6106C24.0525 26.4276 23.6322 26.1564 23.2242 25.8194C22.3363 25.0859 21.8333 24.3182 21.8333 23.6667Z" fill="#94949E"/>
</svg>
