<svg width="30" height="30" viewBox="0 0 30 30" fill="none" xmlns="http://www.w3.org/2000/svg">
<path d="M2.53936 24.0625H11.8351C12.5408 24.0625 13.096 23.4771 12.9554 22.7856C12.5673 20.8765 11.2994 17.5 7.18726 17.5C3.07515 17.5 1.80733 20.8765 1.41913 22.7856C1.27851 23.4771 1.83374 24.0625 2.53936 24.0625Z" fill="#A1A1AA" stroke="#A1A1AA" stroke-width="1.875" stroke-linecap="round" stroke-linejoin="round"/>
<path d="M15 17.5C17.5985 17.5 18.6627 20.1849 19.0924 22.12C19.3244 23.165 18.4791 24.0625 17.4086 24.0625H16.25" stroke="#A1A1AA" stroke-width="1.875" stroke-linecap="round" stroke-linejoin="round"/>
<path d="M7.1875 12.8125C9.08598 12.8125 10.625 11.2735 10.625 9.375C10.625 7.47652 9.08598 5.9375 7.1875 5.9375C5.28902 5.9375 3.75 7.47652 3.75 9.375C3.75 11.2735 5.28902 12.8125 7.1875 12.8125Z" fill="#A1A1AA" stroke="#A1A1AA" stroke-width="1.875" stroke-linecap="round" stroke-linejoin="round"/>
<path d="M13.75 12.8125C15.6485 12.8125 16.875 11.2735 16.875 9.375C16.875 7.47653 15.6485 5.9375 13.75 5.9375" stroke="#A1A1AA" stroke-width="1.875" stroke-linecap="round" stroke-linejoin="round"/>
</svg>
