<svg width="30" height="30" viewBox="0 0 30 30" fill="none" xmlns="http://www.w3.org/2000/svg">
<path fill-rule="evenodd" clip-rule="evenodd" d="M2.8125 8.4375C2.8125 6.53902 4.35152 5 6.25 5H17.3438C18.2814 5 19.0458 5.52798 19.5401 6.21237C20.0353 6.89799 20.3125 7.7982 20.3125 8.75V9.0625C20.3125 9.58027 19.8928 10 19.375 10H16.5625V21.25C16.5625 22.2728 16.1616 23.1912 15.5791 23.8563C15.009 24.5074 14.1843 25 13.2812 25H3.75C1.85153 25 0.3125 23.461 0.3125 21.5625V20.9375C0.3125 20.4197 0.732233 20 1.25 20H2.8125V8.4375ZM4.6875 20H11.25C11.7678 20 12.1875 20.4197 12.1875 20.9375V21.25C12.1875 21.8515 12.3649 22.3575 12.6049 22.6898C12.8458 23.0234 13.097 23.125 13.2812 23.125C13.5001 23.125 13.8473 22.9879 14.1685 22.6211C14.4775 22.2683 14.6875 21.7805 14.6875 21.25V9.0625V8.75C14.6875 8.10047 14.7783 7.45061 14.9854 6.875H6.25C5.38705 6.875 4.6875 7.57455 4.6875 8.4375V20ZM6.5625 10.9375C6.5625 10.4197 6.98223 10 7.5 10H11.875C12.3928 10 12.8125 10.4197 12.8125 10.9375C12.8125 11.4553 12.3928 11.875 11.875 11.875H7.5C6.98223 11.875 6.5625 11.4553 6.5625 10.9375ZM6.5625 14.6875C6.5625 14.1697 6.98223 13.75 7.5 13.75H11.875C12.3928 13.75 12.8125 14.1697 12.8125 14.6875C12.8125 15.2053 12.3928 15.625 11.875 15.625H7.5C6.98223 15.625 6.5625 15.2053 6.5625 14.6875Z" fill="#A1A1AA"/>
</svg>
