<svg width="22" height="22" viewBox="0 0 22 22" fill="none" xmlns="http://www.w3.org/2000/svg">
    <path fill-rule="evenodd" clip-rule="evenodd" d="M6.41675 1.83331C4.89797 1.83331 3.66675 3.06453 3.66675 4.58331V19.25C3.66675 19.608 3.87514 19.9332 4.20038 20.0828C4.52561 20.2324 4.90817 20.1789 5.17997 19.946L6.7223 18.624L8.26463 19.946C8.60792 20.2402 9.11447 20.2402 9.45775 19.946L11.0001 18.624L12.5424 19.946C12.8857 20.2402 13.3922 20.2402 13.7355 19.946L15.2779 18.624L16.8202 19.946C17.092 20.1789 17.4745 20.2324 17.7998 20.0828C18.125 19.9332 18.3334 19.608 18.3334 19.25V4.58331C18.3334 3.06453 17.1022 1.83331 15.5834 1.83331H6.41675ZM14.6274 6.45599C14.9854 6.81397 14.9854 7.39437 14.6274 7.75235L8.66906 13.7107C8.31108 14.0687 7.73068 14.0687 7.3727 13.7107C7.01472 13.3527 7.01472 12.7723 7.3727 12.4143L13.331 6.45599C13.689 6.098 14.2694 6.098 14.6274 6.45599ZM9.39588 7.33333C9.39588 7.96616 8.88287 8.47917 8.25004 8.47917C7.61722 8.47917 7.10421 7.96616 7.10421 7.33333C7.10421 6.70051 7.61722 6.1875 8.25004 6.1875C8.88287 6.1875 9.39588 6.70051 9.39588 7.33333ZM13.75 13.9792C14.3829 13.9792 14.8959 13.4662 14.8959 12.8333C14.8959 12.2005 14.3829 11.6875 13.75 11.6875C13.1172 11.6875 12.6042 12.2005 12.6042 12.8333C12.6042 13.4662 13.1172 13.9792 13.75 13.9792Z" fill="#27272A"/>
</svg>