<svg width="26" height="26" viewBox="0 0 26 26" fill="none" xmlns="http://www.w3.org/2000/svg">
    <path d="M10.6255 9.55451C10.4093 8.93757 10.2917 8.27426 10.2917 7.5835C10.2917 4.91977 12.0397 2.6643 14.4512 1.90154C13.7385 1.38682 12.863 1.0835 11.9167 1.0835C9.52351 1.0835 7.58342 3.0236 7.58342 5.41683C7.58342 7.36035 8.86289 9.00503 10.6255 9.55451Z" fill="white"/>
    <path d="M16.2501 3.25016C15.6884 3.25016 15.1491 3.35759 14.6537 3.55401C13.0523 4.18885 11.9167 5.75225 11.9167 7.5835C11.9167 7.97667 11.9694 8.35924 12.0686 8.72378C12.5693 10.563 14.2502 11.9168 16.2501 11.9168C18.6433 11.9168 20.5834 9.97673 20.5834 7.5835C20.5834 5.19026 18.6433 3.25016 16.2501 3.25016Z" fill="white"/>
    <path fill-rule="evenodd" clip-rule="evenodd" d="M8.66675 16.4452V20.5835H9.75008C9.88345 20.5835 10.0157 20.6081 10.1401 20.6561L10.1446 20.6578L10.1633 20.6649C10.1804 20.6714 10.2067 20.6813 10.2413 20.6941C10.3105 20.7198 10.4129 20.7572 10.5418 20.8025C10.8002 20.8935 11.1623 21.0156 11.5755 21.14C12.4265 21.3961 13.4036 21.6332 14.1349 21.668C17.558 21.831 20.3188 20.2594 22.6473 17.6986C22.8223 17.5061 22.8551 17.1677 22.6337 16.891C22.3766 16.5696 21.7997 16.4733 21.3601 16.8222C20.4022 17.5824 19.0221 18.5312 17.6228 18.9191C16.8436 19.1351 16.0758 19.2725 15.4667 19.3586C15.0649 19.4204 14.6401 19.4663 14.1937 19.4953L14.1696 19.4969L14.1518 19.498L14.1463 19.4983L14.1445 19.4984L14.1433 19.4985C13.5474 19.5315 13.0371 19.0763 13.002 18.4805C12.9669 17.8848 13.4202 17.3728 14.0158 17.3356C14.0314 17.3346 14.0469 17.3336 14.0623 17.3326L14.0803 17.3314C14.1221 17.3285 14.1856 17.3237 14.2678 17.3165C14.4323 17.3022 14.6704 17.2784 14.9576 17.2412C15.0236 17.2326 15.092 17.2234 15.1625 17.2134C16.5117 17.0028 17.3034 16.6114 17.672 16.2771C17.7797 16.1794 17.8371 16.0996 17.8662 16.0464C17.8941 15.9954 17.8962 15.9692 17.8965 15.9652C17.8967 15.9624 17.8972 15.9547 17.8893 15.9359C17.8799 15.9136 17.8537 15.8649 17.7861 15.7974C17.4793 15.4905 16.5834 15.0662 14.8551 15.0821C13.3113 15.0963 11.2382 15.4651 8.66675 16.4452ZM19.9254 15.1942C19.7963 14.8445 19.5836 14.5307 19.3182 14.2653C18.4063 13.3534 16.797 12.8975 14.8352 12.9155C13.0182 12.9322 10.7445 13.3527 8.05972 14.3584C7.47 13.536 6.50595 13.0002 5.41675 13.0002C3.62182 13.0002 2.16675 14.4552 2.16675 16.2502V20.5835C2.16675 22.3784 3.62182 23.8335 5.41675 23.8335C6.37929 23.8335 7.2441 23.415 7.8392 22.7502H9.5545C9.62645 22.7765 9.71672 22.8091 9.82246 22.8463C10.1044 22.9455 10.4989 23.0787 10.9512 23.2148C11.8312 23.4796 13.0208 23.7841 14.0319 23.8323C18.2924 24.0351 21.6353 22.0322 24.2504 19.1562C25.2043 18.1071 25.1525 16.5711 24.3256 15.5375C23.2313 14.1695 21.2681 14.1291 20.0132 15.1251C19.9841 15.1481 19.9548 15.1712 19.9254 15.1942Z" fill="white"/>
</svg>