<svg width="18" height="18" viewBox="0 0 18 18" fill="none" xmlns="http://www.w3.org/2000/svg">
    <g clip-path="url(#clip0_6514_90406)">
        <path fill-rule="evenodd" clip-rule="evenodd" d="M6.74987 10.4998C6.74987 7.60035 9.10038 5.24984 11.9999 5.24984C14.8994 5.24984 17.2499 7.60035 17.2499 10.4998C17.2499 13.3993 14.8994 15.7498 11.9999 15.7498C9.10038 15.7498 6.74987 13.3993 6.74987 10.4998ZM11.9999 8.24984C12.4141 8.24984 12.7499 8.58563 12.7499 8.99984V10.1892L13.7802 11.2195C14.0731 11.5124 14.0731 11.9873 13.7802 12.2802C13.4873 12.5731 13.0124 12.5731 12.7195 12.2802L11.4695 11.0302C11.3289 10.8895 11.2499 10.6988 11.2499 10.4998V8.99984C11.2499 8.58563 11.5857 8.24984 11.9999 8.24984Z" fill="#A1A1AA"/>
        <path d="M1.06581 6.27219C0.850026 5.04843 1.66716 3.88145 2.89092 3.66567L9.53837 2.49354C10.5606 2.3133 11.5432 2.85377 11.9649 3.74994C9.98447 3.7604 8.20587 4.62371 6.97765 5.99135L1.19604 7.0108L1.06581 6.27219Z" fill="#A1A1AA"/>
        <path d="M5.85159 7.71304L1.45652 8.48801L2.1077 12.181C2.32348 13.4048 3.49046 14.2219 4.71422 14.0061L6.09121 13.7633C5.55597 12.7961 5.25127 11.6836 5.25127 10.4998C5.25127 9.50614 5.466 8.56258 5.85159 7.71304Z" fill="#A1A1AA"/>
    </g>
    <defs>
        <clipPath id="clip0_6514_90406">
            <rect width="18" height="18" fill="white"/>
        </clipPath>
    </defs>
</svg>