<svg width="18" height="18" viewBox="0 0 18 18" fill="none" xmlns="http://www.w3.org/2000/svg">
    <path fill-rule="evenodd" clip-rule="evenodd" d="M9 1.5C4.85786 1.5 1.5 4.85786 1.5 9C1.5 13.1421 4.85786 16.5 9 16.5C13.1421 16.5 16.5 13.1421 16.5 9C16.5 4.85786 13.1421 1.5 9 1.5ZM12.1553 5.84467C12.4482 6.13756 12.4482 6.61244 12.1553 6.90533L6.90533 12.1553C6.61244 12.4482 6.13756 12.4482 5.84467 12.1553C5.55178 11.8624 5.55178 11.3876 5.84467 11.0947L11.0947 5.84467C11.3876 5.55178 11.8624 5.55178 12.1553 5.84467ZM7.6875 6.75C7.6875 7.26777 7.26777 7.6875 6.75 7.6875C6.23223 7.6875 5.8125 7.26777 5.8125 6.75C5.8125 6.23223 6.23223 5.8125 6.75 5.8125C7.26777 5.8125 7.6875 6.23223 7.6875 6.75ZM12.1875 11.25C12.1875 11.7678 11.7678 12.1875 11.25 12.1875C10.7322 12.1875 10.3125 11.7678 10.3125 11.25C10.3125 10.7322 10.7322 10.3125 11.25 10.3125C11.7678 10.3125 12.1875 10.7322 12.1875 11.25Z" fill="#A1A1AA"/>
</svg>