<svg width="18" height="18" viewBox="0 0 18 18" fill="none" xmlns="http://www.w3.org/2000/svg">
    <path fill-rule="evenodd" clip-rule="evenodd" d="M2.25 3C2.25 2.58579 2.58579 2.25 3 2.25H6.75C7.16421 2.25 7.5 2.58579 7.5 3C7.5 3.41421 7.16421 3.75 6.75 3.75H4.81066L9 7.93934L13.1893 3.75H11.25C10.8358 3.75 10.5 3.41421 10.5 3C10.5 2.58579 10.8358 2.25 11.25 2.25H15C15.4142 2.25 15.75 2.58579 15.75 3V6.75C15.75 7.16421 15.4142 7.5 15 7.5C14.5858 7.5 14.25 7.16421 14.25 6.75V4.81066L9.75 9.31066V15C9.75 15.4142 9.41421 15.75 9 15.75C8.58579 15.75 8.25 15.4142 8.25 15V9.31066L3.75 4.81066V6.75C3.75 7.16421 3.41421 7.5 3 7.5C2.58579 7.5 2.25 7.16421 2.25 6.75V3Z" fill="#A1A1AA"/>
</svg>